<?xml version="1.0" encoding="UTF-8" standalone="no"?>
<svg
   xmlns:dc="http://purl.org/dc/elements/1.1/"
   xmlns:cc="http://creativecommons.org/ns#"
   xmlns:rdf="http://www.w3.org/1999/02/22-rdf-syntax-ns#"
   xmlns:svg="http://www.w3.org/2000/svg"
   xmlns="http://www.w3.org/2000/svg"
   xmlns:sodipodi="http://sodipodi.sourceforge.net/DTD/sodipodi-0.dtd"
   xmlns:inkscape="http://www.inkscape.org/namespaces/inkscape"
   width="231.24124mm"
   height="231.35164mm"
   viewBox="0 0 231.24124 231.35164"
   version="1.1"
   id="svg8"
   inkscape:version="1.0.2-2 (e86c870879, 2021-01-15)"
   sodipodi:docname="Eintracht Plotterlogo Neu.svg">
  <defs
     id="defs2">
    <clipPath
       id="clipPath18"
       clipPathUnits="userSpaceOnUse">
      <path
         id="path16"
         d="M 0,697.323 H 748.346 V 0 H 0 Z" />
    </clipPath>
    <clipPath
       id="clipPath18-4"
       clipPathUnits="userSpaceOnUse">
      <path
         id="path16-5"
         d="M 0,697.323 H 748.346 V 0 H 0 Z" />
    </clipPath>
    <clipPath
       id="clipPath18-4-3"
       clipPathUnits="userSpaceOnUse">
      <path
         id="path16-5-8"
         d="M 0,697.323 H 748.346 V 0 H 0 Z" />
    </clipPath>
  </defs>
  <sodipodi:namedview
     id="base"
     pagecolor="#ffffff"
     bordercolor="#666666"
     borderopacity="1.0"
     inkscape:pageopacity="0.0"
     inkscape:pageshadow="2"
     inkscape:zoom="0.5"
     inkscape:cx="598.78322"
     inkscape:cy="403.10279"
     inkscape:document-units="mm"
     inkscape:current-layer="g2241"
     inkscape:document-rotation="0"
     showgrid="false"
     inkscape:snap-others="false"
     inkscape:object-nodes="false"
     inkscape:window-width="1920"
     inkscape:window-height="1017"
     inkscape:window-x="-17"
     inkscape:window-y="-17"
     inkscape:window-maximized="1" />
  <metadata
     id="metadata5">
    <rdf:RDF>
      <cc:Work
         rdf:about="">
        <dc:format>image/svg+xml</dc:format>
        <dc:type
           rdf:resource="http://purl.org/dc/dcmitype/StillImage" />
        <dc:title />
      </cc:Work>
    </rdf:RDF>
  </metadata>
  <g
     inkscape:groupmode="layer"
     id="g2241"
     inkscape:label="Ebene 1"
     style="display:inline"
     transform="translate(9.5394111,-7.9428863)">
    <path
       id="path2137"
       style="color:#000000;font-style:normal;font-variant:normal;font-weight:normal;font-stretch:normal;font-size:medium;line-height:normal;font-family:sans-serif;font-variant-ligatures:normal;font-variant-position:normal;font-variant-caps:normal;font-variant-numeric:normal;font-variant-alternates:normal;font-variant-east-asian:normal;font-feature-settings:normal;font-variation-settings:normal;text-indent:0;text-align:start;text-decoration:none;text-decoration-line:none;text-decoration-style:solid;text-decoration-color:#000000;letter-spacing:normal;word-spacing:normal;text-transform:none;writing-mode:lr-tb;direction:ltr;text-orientation:mixed;dominant-baseline:auto;baseline-shift:baseline;text-anchor:start;white-space:normal;shape-padding:0;shape-margin:0;inline-size:0;clip-rule:nonzero;display:inline;overflow:visible;visibility:visible;isolation:auto;mix-blend-mode:normal;color-interpolation:sRGB;color-interpolation-filters:linearRGB;solid-color:#000000;solid-opacity:1;vector-effect:none;fill:#000000;fill-opacity:1;fill-rule:nonzero;stroke:none;stroke-width:0.246094;stroke-linecap:butt;stroke-linejoin:miter;stroke-miterlimit:4;stroke-dasharray:none;stroke-dashoffset:0;stroke-opacity:1;color-rendering:auto;image-rendering:auto;shape-rendering:auto;text-rendering:auto;enable-background:accumulate;stop-color:#000000"
       d="m 89.980199,59.021601 c -8.969701,3.495949 -10.429018,2.35756 -15.826113,2.190254 -5.137946,-0.02262 -7.588624,0.544255 -9.283908,2.250214 -0.377587,0.379958 -1.205771,0.856961 -1.840646,1.060235 -1.987891,0.636499 -3.313442,1.639814 -4.148003,3.13911 -0.418084,0.751074 -0.938555,1.413386 -1.156758,1.472005 -1.113909,0.299282 -4.655496,1.648394 -5.019294,1.912014 -0.229709,0.166457 -0.803418,0.585941 -1.274847,0.931875 -3.601848,2.643045 -4.193267,8.073489 -1.048424,9.628356 1.372737,0.678694 2.122589,0.756185 2.81103,0.290601 0.700369,-0.473676 1.143973,-0.388449 1.112091,0.213588 -0.05047,0.952949 1.189436,2.579867 2.699615,3.542154 0.224489,0.143078 0.194523,0.44975 -0.133493,1.361617 -0.173963,3.241144 1.321219,5.207742 4.225884,5.223851 1.038032,-0.08349 1.579642,-0.09738 2.411231,-0.510561 0.07774,-0.112064 0.80903,-0.308932 1.625006,-0.437445 0.901029,0.102519 1.381099,-0.497155 2.109172,-0.878476 0,0 2.30937,-0.783259 2.708343,-1.21529 0.194841,-0.211003 0.775926,-0.571525 1.291277,-0.80095 0.515353,-0.229423 1.094851,-0.55851 1.287683,-0.73164 0.294708,-0.264737 0.337105,0.08205 0.269038,2.180538 -0.04449,1.372384 0.01478,2.793559 0.131951,3.158623 0.934299,2.000428 1.294222,3.449807 -1.623465,4.652189 -1.453712,0.556112 -2.212089,1.395544 -2.238557,2.477807 -0.01056,0.42953 -0.143902,0.71848 -0.327055,0.70853 -0.976559,-0.0518 -2.125318,2.27165 -1.806759,3.6546 0.153301,0.66557 0.08935,0.88302 -0.397911,1.3493 -0.772102,0.73887 -1.063271,5.75853 -0.424093,7.31278 0.190891,0.46247 0.26525,1.05557 0.166353,1.31798 -0.0989,0.26239 -0.0631,0.55835 0.0801,0.6577 0.182481,0.1267 0.150097,0.33326 -0.109359,0.69263 -0.796786,1.10362 -0.791855,3.34662 0.0087,4.02374 0.267723,0.22653 0.293012,0.42253 0.09652,0.74704 -0.14701,0.24197 -0.224194,0.74655 -0.173025,1.12133 -0.146513,1.24254 0.721259,1.9117 1.54581,2.54548 0.241132,2.12674 0.07007,1.39851 0.773967,2.72479 0.267471,0.51364 0.686622,1.12083 1.101207,1.29034 0.440134,0.18009 0.770231,0.52517 0.838944,0.87643 0.124467,0.63686 1.838709,2.04451 2.229314,1.83089 0.134598,-0.0738 0.239356,-0.0366 0.233097,0.0822 -0.05749,1.08545 1.427324,1.98259 3.458466,2.09018 1.896639,0.10045 2.694266,0.33646 3.648983,1.08799 3.350113,1.61663 6.507051,4.46671 9.000908,6.97081 1.021485,1.06873 1.981159,1.95178 2.132276,1.96181 0.151105,0.0102 0.889,0.7328 1.639896,1.6055 1.433388,1.66586 1.466124,1.7018 3.266445,3.62842 0.621865,0.66549 1.655022,1.8288 2.296059,2.58563 0.641054,0.75682 1.711505,1.90764 2.378725,2.55689 1.21309,1.18041 1.21275,1.18017 0.32345,2.18926 -0.48908,0.55501 -1.163776,1.70808 -1.499216,2.56253 -3.877905,6.7034 -8.717851,7.35023 -15.02912,7.01345 -5.145826,-0.49203 -5.845645,-0.62456 -7.430875,-0.29726 -3.347361,0.65415 -5.61286,4.54495 -3.249846,7.69117 -3.033883,3.55211 0.909218,7.55881 4.078942,6.92271 1.43988,-0.34722 1.22866,-0.14836 1.166614,1.24186 -0.251637,1.17309 0.196642,1.92996 0.196642,1.92996 -0.0096,0.18171 0.241675,0.66606 0.558612,1.07665 0.316942,0.4106 0.572523,0.82052 0.567854,0.91083 1.105924,1.95646 5.268266,0.95269 6.49181,0.056 2.29197,-1.92014 2.89966,-4.05045 5.379209,-5.26369 3.015173,-1.13068 4.46522,-1.30677 8.442854,-2.39262 1.78227,-0.89618 3.45659,-3.82549 3.58631,-6.27462 0.6286,-1.45239 1.89413,-2.79687 2.8408,-3.61353 0.92906,-0.53222 4.9302,-4.29379 5.1379,-4.83035 0.21876,-0.5647 0.58196,-0.51409 2.10148,0.29369 3.05468,1.48721 10.82545,3.47087 11.03977,4.95516 0.10629,1.01651 0.78087,4.481 -2.23803,6.98883 -0.7741,0.65371 -3.4558,1.02628 -6.16526,0.85949 -3.26291,-0.20227 -6.63133,0.38343 -7.90066,1.37342 -0.33008,0.25741 -0.72098,0.53477 -0.86822,0.61663 -2.11251,1.42317 -3.38751,5.25329 -0.21047,7.33076 0.49605,0.12836 1.9721,0.79051 2.32327,1.04225 0.23999,0.17205 0.24847,0.71653 0.0369,2.34125 -0.29532,2.26689 0.61264,4.01378 2.69037,5.1764 1.13596,0.63564 3.58857,0.28046 4.75128,-0.68799 1.98277,-1.18794 1.64194,-0.24478 2.52351,0.76757 2.51775,2.61856 6.71871,0.46892 9.47743,-0.10062 1.34073,-0.262 1.72504,-0.97036 1.66763,-3.07289 -0.0387,-1.41201 0.0545,-2.12834 0.35734,-2.75763 0.22519,-0.46765 0.38995,-0.90086 0.36403,-0.96217 -0.0248,-0.0614 0.83264,-0.97088 1.90482,-2.02138 3.29779,-2.52453 3.63892,-6.24118 3.86253,-9.38395 0.47816,-6.87995 0.48086,-7.10344 2.36417,-7.16129 1.21799,0.10689 7.8456,-2.39836 11.82498,-5.32534 0.21679,-0.29548 0.80978,-0.87656 1.31746,-1.29128 0.50772,-0.41473 1.46747,-1.41845 2.1328,-2.23033 2.54155,-2.8738 5.16648,-6.35056 7.01603,-8.20924 1.49647,-1.38415 2.72439,-2.58227 2.72836,-2.66265 0.004,-0.0804 0.94298,-0.92493 2.08607,-1.8771 1.14309,-0.95218 2.6682,-2.22467 3.38863,-2.82746 1.73951,-1.01421 2.60125,-2.25249 3.91389,-2.98148 3.39223,-1.87004 3.89619,-4.51317 1.21323,-6.36244 -0.84493,-0.58235 -6.53078,-0.38012 -14.69078,0.52216 -0.9448,0.0548 -13.22624,0.0423 -13.33686,-1.77236 0.0185,-0.34927 0.95995,-1.30128 2.50246,-2.52967 0.57417,-0.45727 1.27133,-1.02652 1.37768,-1.26509 0.47214,0.4203 0.51922,0.3968 1.45382,0.77786 1.78318,0.72707 4.64403,0.72431 6.35685,-2.02756 0.15511,-0.50336 0.35259,-0.65182 0.83278,-0.62638 0.34622,0.0183 1.23278,-0.32304 1.97055,-0.75834 0.73774,-0.4353 1.41711,-0.71041 1.56185,-0.78144 0.19708,-0.0885 0.27198,-0.69634 0.33219,-1.55929 0.15561,-2.18555 0.38577,-2.80161 1.09874,-2.94092 0.83852,-0.16388 2.08539,-1.88032 2.14203,-2.94864 0.26061,-1.28633 1.70531,-1.64175 2.29554,-1.88428 0.94623,-0.37203 1.42709,-3.06838 1.02738,-5.30886 -0.68212,-6.43174 -4.32768,-12.605617 -6.90369,-15.668346 -0.38097,-0.49457 -1.17707,-1.535158 -1.76876,-2.311975 -1.24803,-1.595072 -2.99957,-3.073783 -4.18178,-4.291268 -1.65995,-1.746363 -3.525,-3.028487 -6.40618,-4.634716 -0.52662,-0.29358 -1.2253,-0.712221 -1.55261,-0.930335 -1.3305,-0.886618 -4.43305,-2.388736 -5.14252,-2.489622 -0.41674,-0.05926 -1.51928,-0.385408 -2.45009,-0.724963 -2.07028,-0.912325 -3.86071,-1.323218 -5.40231,-1.584959 -1.97157,-0.366127 -5.52087,-0.856325 -6.786,-0.93701 -3.14589,-0.341162 -6.5133,0.218006 -9.38756,0.435901 -0.68029,0.04888 -1.67,0.135342 -2.19953,0.192023 -0.96285,0.103051 -0.96307,0.102828 -0.77169,-0.718803 0.10523,-0.451895 0.2974,-1.407415 0.42666,-2.123545 0.27114,-3.374576 0.20071,-2.865708 0.21819,-6.940551 0.0389,-0.734411 -0.58444,-3.817211 -0.80558,-3.983191 -2.13805,-5.426547 -6.51066,-9.316497 -10.70296,-10.27579 -7.296611,-1.604732 -13.811357,2.820068 -17.119481,4.803741 z M 107.58107,56.58442 c 1.15233,0.436199 3.24013,1.791883 3.88547,2.481244 2.24267,1.950452 3.86226,4.928237 4.47146,7.010376 0.2584,4.531243 0.094,7.872192 -0.36197,10.66189 -0.22545,0.986488 -0.48474,2.145225 -0.57556,2.575367 -0.091,0.430128 -0.36041,1.126065 -0.59866,1.546451 -0.53858,0.949835 -0.55477,1.175099 -0.0867,1.199888 1.15432,-0.904506 2.49418,-1.31976 3.76755,-1.392936 3.82455,-0.742195 5.84356,-0.750832 8.87053,-0.758341 2.83088,0.0779 6.18764,0.141579 8.88388,0.60585 5.01993,0.941357 8.90807,2.451905 11.79278,3.913857 3.01848,1.38529 5.41739,3.000984 7.74478,4.734873 0.1579,0.0084 1.72244,1.66351 4.89401,5.138923 3.63339,3.948173 10.67294,15.289978 7.84111,20.436578 -0.60717,0.73629 -1.80536,0.4737 -1.99262,-0.43642 -0.25774,-1.253 -0.74139,-0.2249 -0.85897,1.82576 -0.1555,2.7103 -0.69865,3.43056 -2.02087,2.68113 -0.97331,-0.55171 -1.26131,-0.32483 -1.00426,0.7912 0.62553,2.71559 -0.74669,5.6489 -2.41979,5.17229 -0.80121,-0.22825 -1.4003,-1.17575 -1.72154,-1.4756 0,0 -0.37612,0.0879 -0.44617,0.81739 -0.2911,3.02634 -0.33374,3.19995 -0.91288,3.72082 -1.4084,1.08429 -3.25605,-0.63368 -3.87383,-1.7508 -0.72478,-1.4018 -0.61467,-1.43094 -2.46189,0.64539 -1.15487,1.28888 -2.11853,2.61749 -3.35374,3.61403 -6.78765,9.23984 17.84627,6.17957 23.18343,5.79204 0.61107,-0.0212 1.47392,-0.0878 1.91766,-0.14838 2.39448,-0.32655 3.87823,0.93528 2.4578,2.09017 -1.08894,0.53174 -1.39709,0.84484 -3.173,1.9346 -2.47782,1.50685 -12.28098,10.3646 -12.3557,11.16404 -0.008,0.0897 -0.597,0.7291 -1.30771,1.42116 -0.71074,0.69207 -1.29709,1.34237 -1.30205,1.4448 -0.005,0.10237 -0.47386,0.69069 -1.04125,1.30771 -0.56738,0.61703 -1.01658,1.24289 -0.9981,1.39087 -3.31028,6.1218 -11.6019,8.41445 -15.72997,9.42043 -2.81982,0.40966 -1.99049,1.06237 -2.42493,2.09633 -0.18934,0.72866 -0.52301,3.53326 -0.74138,6.23253 -0.25527,4.04067 -0.49366,6.19886 -3.30085,8.8007 -2.34678,2.15743 -2.9431,3.3026 -3.0354,5.82641 -0.0787,2.14861 0.83592,3.11822 -2.49077,3.5919 0,0 -3.58088,1.29517 -5.20912,-1.96691 -0.14913,-0.46509 -0.39524,-0.63836 -1.00016,-0.70443 -1.55182,-0.16934 -2.13029,-0.0639 -3.78039,0.688 -2.26999,1.01844 -4.28916,0.71084 -3.87948,-1.72667 0.45387,-2.53728 0.41021,-3.72416 -0.12733,-4.03556 0,0 -3.18272,-1.22904 -4.15108,-2.70321 -0.27361,-2.27265 3.85498,-4.3104 5.42388,-4.27739 2.02263,0.11721 6.19038,-0.0539 7.41444,-0.30446 1.68501,-0.2547 2.18553,-0.26193 3.51747,-1.1778 1.33156,-0.77435 2.31256,-2.01811 2.53634,-3.2151 0.62915,-3.44644 0.57495,-2.91612 0.63313,-4.51408 0.0159,-0.32394 0.0137,-1.17219 -0.006,-1.8848 0.0818,-1.72123 -0.23894,-1.66056 -2.38275,-2.3089 -0.46668,-0.22453 -1.25377,-0.47469 -1.74874,-0.55655 -0.49499,-0.0817 -1.65858,-0.48454 -2.58563,-0.89492 -0.92706,-0.41038 -1.85017,-0.77528 -2.05167,-0.81224 -0.20139,-0.0364 -1.15216,-0.41644 -2.11277,-0.8446 -0.96061,-0.42813 -1.88293,-0.81175 -2.04961,-0.85228 -0.60672,-0.1476 -2.04886,-0.9495 -2.198,-1.22197 -0.30717,-0.56138 -0.86207,-0.28829 -1.96489,0.96627 -0.6198,0.70507 -1.2377,1.28211 -1.37343,1.28409 -0.13561,0.001 -0.54132,0.40201 -0.90159,0.89029 -0.36027,0.48826 -1.56211,1.70364 -2.67086,2.70065 -3.3565,3.01833 -3.9903,3.85477 -4.27328,5.64156 -0.36276,2.81371 -2.56521,4.59984 -5.286276,5.11479 -0.793038,0.13884 -1.725654,0.37917 -2.072719,0.53398 -0.347062,0.15479 -1.221476,0.43222 -1.942819,0.61611 -1.177351,0.32158 -2.231781,0.89222 -2.711426,1.24552 -0.617998,0.43526 -3.740899,4.02752 -3.992946,4.59314 -0.219533,0.49252 -1.784256,0.79513 -2.767387,0.53551 -0.492562,-0.12993 -0.9671,-0.22476 -1.055098,-0.21204 -0.417961,0.0634 -0.6734,-1.55186 -0.45336,-2.87059 0.577063,-3.45811 0.284582,-3.72021 -3.477976,-3.1119 -2.117841,-0.28203 -2.662392,-0.44047 -2.246256,-2.70577 0.445282,-0.94188 2.394794,-1.02414 2.334051,-1.83244 -0.428701,-0.50755 -2.355027,-0.80756 -2.650326,-2.00494 -0.360552,-1.776 1.298612,-3.60699 3.143732,-3.46977 3.449811,0.0599 12.996322,1.27969 16.158162,-0.74918 0.318973,-0.21628 1.093186,-0.65342 1.719991,-0.97193 1.96924,-1.00065 4.708033,-4.10227 5.145593,-5.82691 0.0838,-0.33022 0.24393,-0.71029 0.35581,-0.84408 0.11191,-0.13381 0.37089,-0.6223 0.57504,-1.08591 2.90028,-3.8561 4.16585,-1.17298 -0.32654,-5.945 -0.65638,-0.7052 -1.31206,-1.28847 -1.4566,-1.29642 -0.1445,-0.007 -0.851676,-0.79364 -1.571618,-1.74669 -1.801413,-2.38463 -4.248414,-5.19097 -5.349945,-6.136 -0.505129,-0.43338 -1.581782,-1.48865 -2.392583,-2.34483 -0.8108,-0.8562 -1.60333,-1.60749 -1.761579,-1.66968 -0.250432,-0.0984 -0.674097,-0.45975 -2.276551,-1.94127 -0.83144,-0.76875 -2.223444,-1.83055 -2.470624,-1.8843 -0.148422,-0.0323 -1.210203,-0.68646 -2.359727,-1.45352 -1.149521,-0.76706 -2.19259,-1.39933 -2.317109,-1.40628 -1.894428,-1.52964 -5.477267,-1.28024 -5.537859,-2.53224 0.02458,-0.46405 -0.440217,-0.74203 -1.319515,-0.78864 -0.321109,-0.017 -0.738343,-0.28365 -0.933929,-0.59711 -0.814221,-1.40741 -0.09685,-1.91612 -0.699286,-2.17951 -1.572578,0.27846 -1.589064,0.26548 -1.407311,-1.09412 0.09096,-0.68029 0.29867,-1.35681 0.461575,-1.50332 0.47278,-0.42425 0.362894,-0.65849 -0.224371,-0.47596 -1.704566,0.52992 -2.398945,-0.44216 -1.435037,-2.00956 0.744779,-1.21108 0.726054,-1.65369 -0.07753,-1.81908 -1.241297,-0.25552 -1.306269,-2.12127 -0.0801,-2.29965 0.995037,-1.09758 -0.579752,-2.42676 0.03645,-2.99588 0.502383,-0.34781 0.5005,-0.36267 -0.141194,-1.14237 -0.791031,-0.96126 -0.704127,-1.61133 0.279819,-2.08863 0.90003,-0.43661 1.149024,-0.93265 0.485706,-0.96782 -0.266599,-0.0141 -0.724038,-0.24149 -1.016592,-0.50521 -0.72552,-0.65395 -0.422288,-1.78907 0.465167,-1.74208 0.974443,0.0516 1.87696,-0.41799 1.907393,-0.99246 0.03315,-0.62597 -0.563278,-1.6473 -0.975002,-1.66915 -1.361702,-0.0721 -0.743309,-1.42736 0.715206,-1.56751 1.2556,-0.12063 1.496059,-0.50047 0.994002,-1.5711 -0.508566,-1.08457 0.749383,-2.134667 2.330723,-2.480779 1.233834,-0.919779 1.570588,-2.655271 1.667356,-4.120388 -0.155536,-4.500852 0.125868,-8.479676 1.920661,-10.701206 2.967428,-3.672977 8.472011,-3.920665 11.731448,-3.937715 7.470387,0.226101 6.135667,-2.082679 8.510622,-4.429357 1.269854,-1.341761 2.391924,-3.230685 1.557777,-4.606497 -1.966455,-1.36816 -4.031479,-0.468207 -5.770444,-0.0087 -2.809518,0.734833 -8.048008,3.878329 -12.297678,7.37953 -0.522112,0.43016 -1.350175,1.008635 -1.840134,1.285115 -0.489931,0.276485 -1.179218,0.724493 -1.531562,0.996057 -0.352315,0.271548 -1.731847,1.207874 -3.065692,2.080418 -1.333876,0.872545 -2.630214,1.748963 -2.880857,1.94744 -3.752844,2.541547 -8.512946,5.114755 -12.162133,4.524347 -1.350522,-0.352977 -0.919389,-2.490523 0.643327,-3.189427 0.447675,-0.200218 0.873484,-0.440426 0.946251,-0.533968 0.07271,-0.09354 0.66973,-0.372819 1.326705,-0.620737 1.902586,-0.717976 1.557295,-0.976094 -1.422203,-1.061261 -4.795432,-0.137071 -6.998695,-2.801046 -2.935793,-3.549857 0.400287,-0.07379 0.842755,-0.208695 0.98322,-0.299841 0.140378,-0.09116 1.254543,-0.186654 2.475758,-0.212047 3.496096,-0.07273 4.672838,-0.167797 4.937148,-0.398936 0.135023,-0.118126 0.427665,-0.205338 0.65,-0.193564 0.549743,0.02912 1.324492,-0.781365 1.250203,-1.307707 -2.870936,-1.989783 -9.662826,-1.162696 -12.890179,0.321409 -0.652875,0.303995 -1.682385,0.649783 -2.287844,0.768606 -0.605487,0.118803 -1.236367,0.3627 -1.402179,0.542181 -0.417684,0.452298 -0.800862,0.385874 -1.266629,-0.220261 -0.984614,-1.700218 1.396341,-4.623982 2.60463,-5.62206 1.071983,-1.08137 2.063014,-1.185587 2.991359,-1.630183 0.802204,-0.364493 1.45248,-0.502094 2.110912,-0.633535 0.568422,-0.16595 0.821012,-0.376018 1.298666,-0.573501 0.803691,-0.332283 1.206947,-1.038737 1.36059,-2.384369 1.454054,-1.17878 3.440612,-2.151219 4.641408,-2.513242 0.240619,-0.06469 0.902155,-0.513812 1.469952,-0.998109 1.653328,-1.410126 2.376595,-1.542297 8.087551,-1.478164 12.753851,-0.113953 13.416692,-2.082895 20.299483,-5.710363 3.782858,-2.240889 8.408861,-3.00525 11.788681,-1.311012 z m -9.150531,2.790826 c -16.486855,8.941301 -15.594962,5.786746 -24.265735,6.036401 -1.680229,-0.129049 -4.982917,0.475159 -5.181146,0.919431 -0.166041,0.125359 0,0 -0.342336,0.250163 -0.108705,0.07943 -0.708389,0.433633 -1.275873,0.979624 -1.119203,1.076788 -0.495434,1.860036 1.582392,1.986973 1.432983,-0.127329 0.758204,-0.287578 1.432983,-0.127329 0.482228,0.121133 1.020197,1.660718 1.002728,2.869559 -0.01203,0.830992 1.565564,1.912062 2.892666,1.982356 0.998649,0.0529 1.188606,0.78265 0.667459,2.565096 -0.705817,2.41424 -0.739747,2.76049 -0.328595,3.370155 0.458351,0.679661 1.071213,0.436154 2.859807,-1.136735 2.114048,-1.669478 4.180421,-3.119316 6.947735,-4.81084 0.563583,-0.339914 1.46303,-1.03426 1.998785,-1.542858 1.055847,-0.678152 2.055363,-1.686757 3.073394,-2.08093 0.598653,-0.227772 1.38734,-0.624655 1.752848,-0.882073 5.689244,-4.006895 13.533569,-0.149803 10.437529,5.132248 -0.22882,0.390405 -0.51212,1.103173 -0.62896,1.583931 -0.13652,0.561967 -0.47743,1.049458 -0.9555,1.365212 -0.408956,0.270124 -0.755905,0.718669 -0.77065,0.997082 -0.01475,0.278416 -0.347853,0.811722 -0.740367,1.184995 -0.392514,0.373275 -0.786907,0.924119 -0.876424,1.224018 -0.08958,0.299897 -0.381476,0.573464 -0.648463,0.607901 -0.671515,0.08665 -1.193932,0.875718 -1.680458,1.4566 -0.802032,0.867714 -1.752656,3.46186 -3.181725,3.498515 -0.514969,-0.02727 -1.479313,0.980596 -1.511026,1.57931 1.924911,2.468676 0.902417,-0.0627 2.221613,-0.06315 0.524694,0.02779 1.009623,-0.02977 1.07769,-0.127842 0.527324,-0.75879 2.214018,-0.03123 2.442389,1.053558 0.662024,3.143521 0.663654,3.201402 0.09241,3.538562 -0.743164,0.438664 -0.207499,1.137735 0.917499,1.197317 0.609157,0.03226 0.921579,0.21039 1.196294,0.68235 0.204445,0.351271 0.627315,0.717581 0.939582,0.813786 0.31224,0.09619 0.620016,0.376726 0.684396,0.623819 0.34145,1.312969 0.97148,0.271577 1.12698,-1.862726 0.16954,-2.327735 0.77664,-4.529836 1.57521,-5.712937 0.68291,-1.306796 1.59774,-2.805743 2.62826,-3.488238 0.66624,-0.423383 1.34665,-0.887741 1.51205,-1.031994 1.92987,-1.043178 2.28979,-0.95012 3.65973,-1.50127 0.58307,-0.208133 0.96943,-0.571065 1.23891,-1.163433 0.88591,-1.226444 0.78522,-2.455076 1.17936,-3.829163 0.33716,-1.163214 0.55553,-2.292144 0.48519,-2.509132 0.36099,-1.651196 0.20007,-1.055831 0.38969,-2.60874 0.10562,-0.85234 0.10877,-2.202866 0.007,-3.001001 -0.83995,-7.341805 -8.28031,-13.183011 -15.635321,-10.018568 z m -23.47146,8.780172 c 0.489675,0.01183 1.075391,0.129437 1.752852,0.353753 1.181281,0.391128 1.312032,2.957791 0.198697,3.897963 -1.331161,1.124121 -2.813652,0.69424 -3.48157,-0.52678 -0.343485,-0.627925 -0.191103,-0.376189 -0.339256,-0.627925 -0.177446,-0.184831 -0.146329,-1.4327 0.24273,-2.276038 0.261086,-0.565939 0.810424,-0.840681 1.626547,-0.820973 z m -13.735283,4.254794 c -0.212796,-0.0033 -0.445068,0.06697 -0.797357,0.209993 -0.457112,0.185575 -1.305809,0.437048 -1.885829,0.558612 -2.832959,0.593762 -4.173366,1.357903 -5.111198,2.913203 -0.48605,0.806089 -0.988038,1.459765 -1.115168,1.453009 -0.127134,-0.0068 -0.237141,0.100504 -0.244393,0.238231 -0.01899,0.358348 1.095728,0.119562 2.885989,-0.618172 3.848243,-1.376657 8.160113,-2.808078 12.168297,-2.120464 0.670787,0.130976 1.307202,0.220855 1.413985,0.199722 0.349747,-0.06866 1.725651,0.828655 2.131251,1.389856 0.994167,3.872847 -3.582381,7.996085 -6.393747,9.158569 -2.40165,0.914704 -3.624727,2.12725 -2.601038,2.578445 0.767259,0.28525 1.51864,-0.193471 2.174892,-0.354785 1.018979,-0.189514 1.830151,-0.935816 2.680617,-1.272794 3.609893,-1.408423 6.991572,-5.016965 6.658163,-7.104846 -0.111475,-0.698018 -0.176087,-1.76105 -0.144274,-2.361777 0.05306,-1.001732 -0.02533,-1.159495 -0.946251,-1.908422 -2.131433,-1.733366 -2.597591,-1.893615 -6.216613,-2.13895 -2.17245,-0.147263 -3.556067,-0.351357 -3.977544,-0.586338 -0.273941,-0.152734 -0.466985,-0.229795 -0.679782,-0.233097 z m 35.698286,0.41434 c 0.280168,-5.05e-4 0.238102,0.210887 -0.180728,0.603793 -0.978218,0.917648 -1.651659,1.712057 -1.665053,1.964897 -0.04659,0.879471 -1.653641,2.358576 -2.537886,2.335595 h -5.12e-4 c -0.501079,-0.01309 -1.908167,-0.03544 -3.127305,-0.04929 -2.216609,-0.02515 -2.216851,-0.02493 -1.446332,-0.614064 0.423786,-0.324028 1.117556,-0.862002 1.54183,-1.195266 0.424277,-0.333263 1.22631,-0.816173 1.782116,-1.073581 0.555779,-0.257414 1.41054,-0.687907 1.899179,-0.95652 1.793034,-0.579367 2.180533,-0.752958 3.734691,-1.015564 z m 29.028318,9.403472 c -1.1784,0.0086 -2.31052,0.06338 -3.27415,0.166351 -2.13675,0.118989 -5.06122,0.597582 -7.27545,1.007648 -4.22202,0.798335 -9.88937,2.454984 -11.33536,8.500053 -0.014,0.319691 -0.14237,1.462651 -0.28495,2.539426 -0.54051,4.076511 1.12096,7.251178 5.33402,10.191078 1.341,0.94159 6.17571,3.22512 6.57088,5.98458 0.23152,3.65227 -1.96507,6.36774 -5.98557,7.39904 -0.68707,0.17624 -1.30785,0.38065 -1.37958,0.45387 -0.0716,0.0733 -0.68216,0.41387 -1.35649,0.75732 -0.80952,0.4123 -1.35739,0.89696 -1.61217,1.4263 -0.21229,0.44096 -0.49283,0.86025 -0.62382,0.93188 -0.13103,0.0717 -0.44673,0.66131 -0.70083,1.30976 -0.84367,2.15215 -1.9853,1.69234 -1.79392,-0.72239 0.13797,-1.74211 1.24028,-3.76528 2.90653,-5.33352 0.60541,-0.56982 1.07539,-1.06019 1.0438,-1.0895 -0.24239,-0.22562 -2.80387,-1.49163 -3.04362,-1.50435 -0.16707,-0.009 -1.0777,-0.40587 -2.02394,-0.88258 -0.94626,-0.47671 -1.886257,-0.88721 -2.08812,-0.91186 -0.433254,-0.0528 -1.802939,-0.9721 -3.45025,-2.31556 -0.649634,-0.52983 -1.376783,-1.04373 -1.615767,-1.14239 -0.856167,-0.35352 -1.38046,-2.37911 -0.976543,-3.77165 0.411075,-1.41724 -0.01262,-1.9745 -3.780899,-4.97412 -4.403981,-3.50563 -4.649522,-3.593522 -6.053856,-2.167189 -1.09841,1.115635 -1.972886,1.501999 -3.36348,1.486901 -0.18225,-0.002 -0.505932,0.428879 -0.719317,0.957028 -0.213413,0.52816 -0.593474,1.0982 -0.844592,1.26715 -0.251086,0.16893 -0.666202,0.44198 -0.922635,0.60687 -0.256228,0.16489 -0.515961,0.60584 -0.577095,0.97963 -0.06403,0.3912 -0.441898,0.93085 -0.889773,1.27176 -0.656126,0.49946 -0.763826,0.72077 -0.689538,1.41194 0.07122,0.66177 -0.06932,0.99535 -0.729584,1.73334 -0.46886,0.52424 -0.856652,1.12445 -0.720493,1.21903 0.582929,0.40438 0.170457,2.04522 -0.552301,2.23318 -0.809712,0.80258 0.200881,1.78283 -0.183262,2.3624 -0.860409,0.76038 0.684724,1.9791 -0.411287,3.35782 -0.81087,1.09266 -0.654591,1.31 -0.03226,1.53211 0.510121,0.18207 0.514511,1.6499 -0.07585,2.18092 -0.795666,0.93053 0.702011,0.72496 0.891462,1.40786 -0.322903,1.32462 0.0082,1.80143 1.012378,1.66337 0.57377,-0.0987 0.48165,1.50994 0.541542,1.85196 0.01294,0.58046 0.180263,0.642 0.863676,0.68412 0.868992,0.046 0.50962,1.18385 0.908997,1.41808 1.529761,0.95169 3.462169,1.65967 4.801712,2.39975 1.185079,0.65686 2.281236,1.22342 2.435715,1.25789 0.15451,0.035 0.937341,0.58132 1.739501,1.21375 0.802162,0.63245 1.873359,1.39427 2.380776,1.69329 0.507409,0.29911 1.168343,0.77812 1.468409,1.06383 1.335264,1.2719 3.715174,3.29836 3.851239,3.27929 0.08235,-0.0116 1.263546,1.15455 2.624656,2.59076 1.361111,1.43625 2.495969,2.61189 2.52505,2.61387 0.02758,0.001 0.51421,0.49829 1.081795,1.10439 2.313274,2.47034 4.084204,4.20906 4.639864,4.55618 0.3236,0.20216 0.74916,0.54108 0.94574,0.75321 0.77444,0.83558 3.65688,3.25125 3.89488,3.26386 0.13882,0.007 0.68835,0.45238 1.22095,0.98887 0.53256,0.53648 1.14795,1.01805 1.36725,1.0705 0.21934,0.0524 0.77048,0.3421 1.22505,0.64385 0.45462,0.30176 0.82932,0.49031 0.8333,0.41947 0.004,-0.0708 0.89534,0.3774 1.98081,0.99554 1.08548,0.6182 2.1386,1.14385 2.34073,1.16908 3.14158,1.6857 4.46697,1.68299 6.13548,2.51896 0.75613,0.38353 1.61477,0.70271 1.90792,0.71265 0.29316,0.009 0.98664,0.11602 1.54132,0.23823 1.17003,0.258 1.56837,-0.81453 1.42425,-3.84046 -0.0785,-1.64788 0.13886,-2.73393 0.93996,-2.8356 0,0 1.85353,1.03701 3.18694,1.57307 0.58811,0.24001 1.77179,0.52702 2.6303,0.63717 3.05196,0.39184 3.28198,0.78828 2.0799,3.58323 -0.45783,1.06436 -0.76878,2.00536 -0.69158,2.0912 l -0.003,-5.1e-4 c 0.20512,0.22797 0.67464,-0.0457 0.67464,-0.0457 0.0551,-0.13781 0.75848,-0.31406 1.49716,-0.42717 6.01373,-1.76538 7.61445,-2.54225 10.93453,-6.54008 1.70446,-1.06486 3.82557,-5.71745 5.07217,-6.67305 1.03976,-0.77384 1.01505,-1.21233 -0.0678,-1.19167 -1.34861,0.0259 -2.02344,-1.40009 -1.06895,-2.25858 0.36071,-0.32453 0.32129,-0.33571 -1.62604,-0.47646 -2.81064,-0.20311 -2.08119,-2.92933 0.92212,-3.44666 0.9575,-0.16493 1.91589,-0.37928 2.12971,-0.47595 0.21388,-0.0968 1.07988,-0.21906 1.92434,-0.27212 1.17731,-0.009 2.15884,-0.59905 3.11189,-0.784 3.07127,-0.5845 4.7821,-1.32846 2.29761,-0.99914 -0.63357,0.0841 -2.60292,0.10376 -4.37648,0.0442 -4.47974,-0.0211 -13.33208,-0.55856 -16.22235,-3.24238 -0.56654,-0.57019 -1.25849,-0.55217 -2.2714,0.0595 -5.06771,2.5711 -12.0153,4.26457 -17.26564,3.66643 -2.23293,-0.34635 -1.42328,-2.25425 0.9175,-2.16205 5.90344,-0.39669 10.84686,-1.50908 14.96196,-4.67174 1.71259,-0.97464 3.00317,-2.69996 4.23066,-3.64792 1.40926,-1.08105 -1.33585,-0.30223 -2.20774,0.007 -2.13303,1.00235 -4.38011,1.44397 -6.68795,1.88942 -1.00169,0.19575 -0.24698,-2.70803 0.77785,-2.99278 0.23639,-0.0657 0.88892,-0.3027 1.44993,-0.52678 0.561,-0.22411 1.51749,-0.48702 2.12559,-0.58429 2.50495,-0.40019 4.00751,-0.7696 5.32171,-1.30822 0.76356,-0.31303 1.4992,-0.563 1.63476,-0.55604 0.54011,0.0286 0.57482,-0.53039 0.0719,-1.12596 -0.56986,-0.67418 -1.69966,-0.72258 -2.80795,-0.11962 -0.27912,0.1519 -1.05288,0.31616 -1.71947,0.36505 -0.66663,0.0489 -1.33901,0.17744 -1.49408,0.28597 -0.58774,0.41131 -2.57685,0.40032 -2.71143,-0.0148 -0.29093,-0.89736 -0.0649,-1.34327 0.86873,-1.7164 0.51925,-0.20747 1.00428,-0.44849 1.0782,-0.53602 0.0741,-0.0874 0.82861,-0.20029 1.67686,-0.25107 0.84824,-0.0507 1.54767,-0.18866 1.55364,-0.30652 0.006,-0.1176 0.44694,-0.19046 0.97962,-0.16224 1.18008,0.0625 1.38937,-0.18754 0.95755,-1.14341 -0.18177,-0.40306 -0.25772,-0.79819 -0.1684,-0.87848 0.25898,-0.23297 -1.84705,-0.27605 -2.33149,-0.0478 -0.53944,0.25427 -2.59109,0.61818 -3.27876,0.58172 -0.52514,-0.0278 -0.6523,-0.96053 -0.25312,-1.85605 0.24368,-0.54666 2.5504,-1.47251 3.53907,-1.42015 0.96577,0.0511 1.00061,-0.0432 0.29112,-0.79684 -0.29575,-0.31415 -1.03696,-1.42948 -1.64657,-2.47833 -0.60968,-1.04885 -1.18786,-1.94668 -1.28512,-1.99467 -1.63636,-1.5399 -1.26313,-2.92496 -2.09737,0.46003 -0.0981,0.40144 -0.16625,0.89702 -0.14788,1.10131 0.15522,1.75267 -0.2195,4.19984 -0.73317,4.78619 -0.36779,0.41985 -0.57381,0.98631 -0.61047,1.67892 -0.0351,0.66206 -0.23856,1.24885 -0.5545,1.59933 -0.62326,1.21006 -0.41145,2.58482 -1.41142,3.52059 -0.406,0.36518 -0.92567,0.98251 -1.15471,1.37189 -0.40013,0.68028 -2.4383,2.69563 -2.71142,2.68113 -0.0728,-0.004 -0.67301,0.49903 -1.33389,1.11723 -0.66092,0.61813 -1.39296,1.18353 -1.62707,1.25636 -0.23394,0.0729 -0.62932,0.48786 -0.87847,0.92212 -1.19774,2.08681 -2.38362,2.57937 -5.90547,2.45163 -1.96837,-0.0713 -3.01041,0.0228 -4.38213,0.39534 -2.71321,0.73691 -3.4399,-0.51212 -1.37703,-2.36743 0.53848,-0.45577 1.67164,-0.75414 2.64417,-0.86557 4.13652,1.59062 3.12353,0.12822 4.55618,0.0549 1.08016,-0.0466 1.1628,-0.85658 0.12836,-1.25739 -0.87077,-0.3374 -1.06574,-0.62642 -1.0248,-1.51154 0.0371,-0.78503 0.91581,-1.09602 1.72049,-0.60893 0.2696,0.16292 0.57821,0.28589 0.68595,0.27417 2.33768,0.64937 1.69648,0.71654 2.46703,0.0457 0.53977,-0.17496 0.19414,-0.47087 -1.04585,-0.89541 -1.73304,-0.59333 -2.13959,-1.34434 -1.0664,-1.969 0.96509,0.0465 5.32219,0.71304 3.43953,-0.77786 -0.45206,-0.33175 -0.55576,-0.60077 -0.46466,-1.20655 0.12833,-0.85177 -0.13318,-0.79351 3.15298,-0.71213 1.26668,0.0314 1.30397,-0.38949 0.076,-0.85948 -1.60285,-0.61346 -1.10991,-1.27481 1.6897,-2.26783 1.49004,-0.52851 1.3973,-1.05138 -0.16326,-0.92109 -1.34066,0.11194 -1.62531,-0.22718 -1.15779,-1.37959 0.31589,-0.77869 0.44222,-0.85294 1.62962,-0.96011 1.28554,-0.11604 3.62481,-1.75256 3.06262,-2.14255 -0.29218,-0.2027 -1.7774,0.0597 -1.98492,0.35068 -0.3653,0.5118 -2.21919,0.21533 -2.6873,-0.42974 -0.45886,-0.63237 0.17058,-1.73647 0.96627,-1.69484 0.63711,0.0332 3.40396,-1.3103 3.69773,-1.79546 0.32354,-0.53451 0.32362,-0.53428 -2.2822,-0.51292 -1.43317,0.0117 -2.64708,-0.0627 -2.69755,-0.16532 -0.57264,-1.16281 0.28528,-2.75423 1.45146,-2.69243 2.07149,0.10972 3.25602,-0.83768 2.41312,-1.92947 -0.40519,-0.58033 -0.85621,-0.66903 -1.28665,-1.06896 -0.83783,-0.78434 -1.2246,-0.69577 -2.39464,0.54834 -1.17596,1.25036 -2.2045,1.80209 -3.27312,1.7544 -1.74978,-0.0776 -3.07248,-1.00417 -2.12868,-1.49102 0.25306,-0.1305 1.29979,-0.99453 2.32635,-1.92022 0.57823,-0.55449 1.75451,-1.56069 1.39961,-2.16614 -0.10673,-0.0159 -0.51999,-0.33337 -0.91801,-0.70596 -0.67411,-0.63105 -1.17678,-0.35633 -1.17678,-0.35633 0.0117,0.10484 -0.27924,0.51094 -0.6459,0.90262 -2.11146,2.40124 -3.89232,2.29395 -4.79852,1.03099 -0.3454,-0.59344 0.21057,-2.28926 0.74139,-2.26114 0.36125,0.0191 1.63308,-1.058711 1.73796,-1.621934 -1.46795,-1.543592 -3.49989,-2.171952 -5.37202,-3.3871 -2.56327,-2.166115 -5.71184,-2.881977 -6.70744,-1.524887 -0.50428,0.687311 -0.52015,0.740037 -0.99914,3.345513 -0.39105,2.127323 -0.58962,2.556268 -1.16908,2.525565 -0.72226,-0.03826 -1.53604,-2.70328 -1.3,-4.25788 1.14897,-7.439092 4.07773,-7.020897 8.53631,-5.021348 0.55519,0.304634 1.76404,0.963796 2.68628,1.46533 3.29582,2.074107 6.78693,3.923865 9.57188,6.136004 1.73756,1.394455 3.71924,2.551137 5.22363,4.070477 0.54397,0.5567 1.36412,1.29714 1.82268,1.64554 1.90801,2.09216 4.34293,3.88632 5.95066,6.38605 0.31163,0.51403 0.69502,0.94245 0.85228,0.95139 1.99244,1.36059 2.98879,5.93318 3.72957,6.11033 0.71637,0.0421 1.30784,-1.96569 0.85896,-2.92295 -0.2433,-2.55383 -1.9411,-4.24454 -3.20534,-5.63285 -1.05541,-1.18566 -2.27255,-2.34737 -2.70424,-2.58153 -1.30738,-0.70915 -6.15035,-5.66143 -7.06532,-7.224479 -0.48029,-0.820513 -2.50331,-3.676842 -2.82899,-3.994489 -2.74352,-3.898645 2.67822,-1.773111 3.4071,0.06264 0.89821,1.638453 2.12175,3.105266 3.11036,4.580821 0.70978,0.980427 1.5665,2.044197 2.46755,2.713997 5.75015,6.13992 13.34246,11.86467 15.09541,21.42544 0.10117,0.18506 0.33115,0.11942 0.6803,-0.19458 1.46681,-1.31925 -0.006,-8.16287 -2.41723,-11.23334 -1.66897,-2.34603 -3.8287,-4.62262 -5.74118,-6.37218 -3.37679,-3.04837 -6.85964,-6.769199 -7.34359,-7.844714 -1.36179,-2.073748 -2.14848,-4.44255 -3.84662,-5.543504 -0.80662,-0.472847 -1.07403,-1.106878 -0.6572,-1.55826 2.27431,-0.240868 4.70787,1.268797 5.64055,3.605305 0.37025,0.961559 0.99982,2.140333 1.39909,2.619523 3.2854,4.60815 8.18736,7.59157 11.24567,12.11439 0.40872,0.61279 1.11935,1.59318 1.57931,2.17849 0.45991,0.58531 1.22128,1.91638 1.69175,2.95787 0.80486,1.53361 1.58066,3.22093 1.9192,4.79338 0.46999,2.30847 0.86605,2.15777 1.09412,-0.41639 -0.29461,-6.23868 -5.42007,-12.00865 -8.19897,-15.21756 -2.01605,-3.46661 -11.81323,-11.311568 -10.42414,-14.111638 0.63828,-0.899039 4.25886,1.381021 5.55531,3.498514 1.64224,1.468778 2.9393,5.020469 3.84065,5.662803 0.50234,0.5549 4.82606,5.156831 5.97562,6.925481 1.92124,2.72945 4.11065,5.56193 5.38896,8.33709 0.52431,1.18679 0.86635,1.04951 0.81379,-0.32655 0.43233,-5.13322 -6.88225,-10.67771 -7.6686,-13.775333 -0.026,-0.157861 -0.86048,-1.606685 -1.0248,-1.779552 -0.61592,-0.772999 -0.99541,-1.569529 -1.68302,-2.349456 -0.4755,-0.528561 -0.62065,-1.619181 -0.25107,-1.883777 0.96271,-0.689185 2.86402,0.414858 3.76139,2.18413 0.76878,1.369787 2.37185,2.730964 3.02741,3.773614 0.78007,1.269394 1.42915,2.266404 2.11973,3.290684 0.64104,0.95694 1.32216,1.91753 1.5141,2.13484 0.19179,0.2173 0.60077,0.87148 0.90877,1.45352 0.30804,0.58208 0.94448,1.64932 1.4145,2.37205 0,0 0.97795,2.80191 1.55056,2.33559 -0.82537,-5.73013 -4.37552,-11.71453 -7.95714,-15.85011 -0.78604,-0.956535 -5.40231,-5.085417 -6.38091,-5.70729 -3.20155,-2.034469 -4.5895,-2.868773 -5.30887,-3.18994 -1.96644,-0.877898 -3.46155,-1.44946 -3.55961,-1.361104 -0.0579,0.05211 -0.97283,-0.27462 -2.03318,-0.726503 -1.06038,-0.451896 -2.01467,-0.774168 -2.12047,-0.716236 -0.1059,0.05795 -0.71864,-0.08399 -1.36161,-0.315247 -0.64297,-0.231251 -1.83866,-0.515074 -2.65752,-0.63049 -0.81887,-0.115384 -2.31486,-0.325251 -3.32394,-0.466194 -1.65559,-0.231232 -3.74792,-0.344482 -5.71192,-0.330137 z m -35.644379,0.651029 c -0.914313,-0.01086 -1.719222,0.0076 -1.78879,0.04056 -0.06951,0.03296 -0.847108,0.0527 -1.727693,0.04416 -5.536202,-0.05355 -8.618114,2.164863 -8.793005,6.329567 0.01543,1.811689 0.294001,3.973728 1.16292,5.391018 0.948486,1.519274 3.18827,0.30526 2.859807,-1.550047 -0.105984,-0.598456 -0.07829,-1.913298 0.06161,-2.922446 0.1399,-1.009147 0.344165,-2.489969 0.454386,-3.290572 1.278956,-3.731158 5.780859,1.300545 6.082095,1.172161 0.406283,0.0447 1.948322,-3.893021 2.950683,-4.615224 0.890977,-0.28882 0.275902,-0.580911 -1.262013,-0.599174 z m -5.095793,5.527076 c -0.358319,-0.01897 -0.829694,1.852186 -0.769633,3.053883 0.08317,1.664764 0.406821,2.348092 1.130574,2.386425 0.314288,0.01664 0.986323,0.347014 1.493054,0.73369 0.506705,0.38668 1.59717,1.103423 2.42339,1.593175 1.493563,0.885314 2.750359,2.036894 4.719963,4.325138 h -5.12e-4 c 0.893609,1.0386 1.118392,1.17711 1.692779,1.04483 1.496799,-0.11892 2.330877,-1.43338 3.462575,-1.909452 1.000272,-0.411306 0.956432,-0.669525 -0.189459,-1.116194 -0.86388,-1.143134 -1.557392,-1.774301 -2.843775,-2.302258 -1.346209,-1.276322 -1.37938,-1.097565 -2.373814,-2.701223 0.746437,-1.368187 2.026679,-1.969218 1.034808,-3.541592 -0.546083,-0.827768 -2.358426,0.278904 -3.242465,1.96936 -1.669177,-0.353575 -5.947137,-3.602863 -6.537485,-3.535782 z m 16.312192,13.280901 c -0.54834,0.025 -1.764606,0.60574 -2.534809,1.29847 -0.244444,0.21985 -0.875291,0.59186 -1.401664,0.82713 -2.452031,1.09597 -2.758978,4.32464 -0.423065,4.44836 0.317914,0.0169 0.641814,0.14738 0.719828,0.29009 0.182392,0.33335 2.70992,1.81711 4.41858,2.59385 0.72796,0.33092 1.96729,1.00292 2.75455,1.49357 0.78726,0.49064 1.43305,0.86323 1.43504,0.82816 0.002,-0.0351 0.32794,0.085 0.72497,0.26647 0.39701,0.18143 0.99402,0.43299 1.32618,0.55913 0.86696,0.32896 1.7054,0.37013 1.72051,0.0842 0.007,-0.13517 0.18423,-0.23653 0.39381,-0.2254 2.9396,0.1557 3.36504,-2.98305 0.66797,-4.92842 -0.87477,-0.63098 -1.64211,-1.22289 -1.70511,-1.31489 -0.0629,-0.092 -0.60264,-0.36303 -1.19989,-0.60277 -2.77587,-1.11417 -6.67187,-4.3201 -6.61246,-5.44133 0.007,-0.13155 -0.10168,-0.18494 -0.28444,-0.17662 z M 86.140563,124.2374 c 0.270688,0.007 0.594612,0.0771 0.967302,0.20999 0.571067,0.2035 1.228337,0.4086 1.460196,0.4549 0.65079,0.13041 0.765365,0.37225 0.830729,1.75387 0.03625,0.76519 0.180294,1.2885 0.357348,1.29744 0.735273,0.039 0.996874,1.00857 0.421526,1.56238 -0.299927,0.28909 -0.444031,0.53777 -0.319866,0.55655 1.793623,0.24454 2.643449,1.47213 1.712802,2.47473 -0.744729,0.80232 -1.755927,0.63329 -2.701156,-0.4513 -1.497162,-1.18396 -0.780487,-0.6956 -1.497162,-1.18396 -0.283412,-0.19955 -1.349911,-0.83215 -2.369995,-1.40577 -1.956251,-1.10005 -2.336378,-1.75597 -1.298464,-2.24266 0.277976,-0.13036 0.511957,-0.36296 0.520106,-0.51652 0.0081,-0.15354 0.215984,-0.47887 0.462086,-0.72342 0.246008,-0.24449 0.463943,-0.67259 0.481598,-0.95138 0.0386,-0.56849 0.377435,-0.85171 0.97295,-0.83484 z m 25.379367,21.42544 c 0.23894,0.002 0.50265,0.0494 0.78195,0.14735 0.5939,0.20813 1.21105,0.38966 1.37137,0.40715 0.53656,0.0528 2.01499,1.70421 1.85246,2.06912 -0.096,0.21529 0.20088,0.69032 0.77118,1.23326 0.97015,0.92368 1.10822,1.38973 0.56528,1.9074 -0.24441,0.23464 -0.25376,0.33941 -0.0374,0.4323 1.76411,0.75836 2.79311,2.83097 1.77955,3.58529 h -0.002 c -0.8157,0.60709 -3.40592,-0.33384 -5.51013,-2.00186 -0.33989,-0.26931 -0.67162,-0.44163 -0.73729,-0.38251 -0.20092,0.1807 -3.08696,-2.09822 -3.56321,-2.8136 -0.48897,-0.73461 -0.32017,-1.71028 0.29061,-1.67789 0.19356,0.0102 0.36293,-0.1889 0.37634,-0.44258 0.0134,-0.25377 0.19739,-0.58996 0.40921,-0.74755 0.21179,-0.15752 0.39255,-0.42689 0.40149,-0.59814 0.0378,-0.7122 0.53339,-1.12241 1.2502,-1.11774 z m -4.02786,10.29633 c -0.32639,-0.002 -0.66318,0.3465 -1.58803,1.17831 -1.05787,0.95148 -1.49894,1.5537 -1.76313,2.40903 -0.2051,0.66391 -0.88439,1.77139 -1.62552,2.64981 -1.79581,2.13672 -5.373246,5.64451 -7.861161,6.57928 -3.168722,1.59514 -15.898534,0.0309 -16.109018,0.95843 0.379339,1.20327 1.27737,2.09608 3.2543,1.93969 2.317598,-0.18341 3.559589,0.54557 2.520941,1.47971 -0.357123,0.32115 -0.975001,0.45603 -2.216478,0.48365 -1.9729,0.0441 -2.554731,0.15947 -3.048747,0.60379 -0.637335,0.57333 -0.145373,0.74818 2.222637,0.7912 1.556325,0.24402 2.330312,1.25547 2.353912,2.59108 0.02651,1.50011 -0.0123,1.24013 -0.0869,2.40251 -0.27448,0.21053 -0.222365,0.962 -0.226637,1.04179 -0.01678,0.31685 0.667808,0.15332 1.190645,-0.28444 1.230174,-0.95494 3.109701,-3.65417 4.684972,-4.25824 2.464369,-0.945 9.510308,-2.56376 10.431951,-5.73056 0.11067,-1.85376 0.567363,-2.58909 3.009733,-4.84472 1.19192,-1.10082 2.40658,-2.33373 2.69909,-2.74018 0.29261,-0.40641 1.25155,-1.56578 2.13074,-2.57639 2.5826,-2.96868 2.58981,-2.9985 1.04073,-4.09512 -0.5129,-0.36307 -0.76017,-0.57696 -1.01403,-0.57863 z m 24.13943,3.81373 c -0.4546,-0.35693 -0.46867,-0.30282 -0.6192,2.36998 0.54164,2.99042 -1.26251,10.99563 -1.26251,10.99563 -1.79219,6.90514 -7.74986,7.59536 -14.26566,7.24141 -1.5567,-0.39806 -4.18203,0.80467 -2.81412,1.28922 1.48031,0.80194 3.24579,2.19646 3.05146,2.7436 0.24127,1.11057 -1.04963,3.569 0.6445,3.6747 0,0 4.48746,-0.98221 5.12069,-0.60164 0.90093,1.12425 4.64622,3.32136 5.06242,1.22606 0.26294,-2.76131 1.4121,-4.96081 4.17418,-7.98949 2.53047,-2.89876 2.22433,-4.1827 2.4732,-7.71121 0.37992,-5.54907 0.91757,-9.28318 1.54902,-10.76098 0.82342,-3.28392 -1.60487,-1.3296 -3.11398,-2.47728 z"
       sodipodi:nodetypes="ccssscssscsccccccssccccccsscscscccccccccscccssssscccccccscccccccccccsccscsccccccccccscccsccsccscscssccsccccccsssccccsscccccscccccccccccccccscssccccccccccscscccccccccccccccccccccscsccscscccsccccccccccccssscccssssscscccccsccsccccssccsccsccsccccssssccscssscccsccccccccsccccccsscssccsscsccsccscsssccscccccssssccsccccccccccscscsssccsscsccccccccssssssccssssssssccsscccccscsccccsccscscssscsscccccccccsccccccccsccssccsccscscsccccsccccccsccccccscccccccccccccssccccssccscccscccssssccccscccscccccccccsccccsccccsssssscscccccccscsccssccsccccscccccccccccsscccccsccccccccsccccccccccccccccccscccsscssssscsscccccsccccsccsssccccccccccccsccsscscscsccccccccccccccssscscccccccccccccccsssccccscccccsccscccsccsccccccccccccccccc" />
    <g
       id="g2237"
       transform="translate(165.76056,-11.599497)">
      <g
         transform="matrix(0.35277777,0,0,-0.35277777,-64.772934,228.2644)"
         id="g2141"
         style="fill:#000000;fill-opacity:1">
        <path
           id="path2139"
           style="fill:#000000;fill-opacity:1;fill-rule:nonzero;stroke:none"
           d="m 0,0 c 2.812,-0.037 5.674,-0.193 8.426,0.245 3.504,0.559 5.207,3.027 4.997,6.318 -0.198,3.119 -2.437,5.212 -5.918,5.388 -1.983,0.1 -3.976,0.018 -5.965,0.018 v 0.043 c -1.657,0 -3.315,0.032 -4.972,-0.007 C -7.443,11.911 -7.539,11.897 -7.521,7.757 -7.482,-1.321 -8.482,0.113 0,0" />
      </g>
      <g
         transform="matrix(0.35277777,0,0,-0.35277777,19.284977,78.619594)"
         id="g2145"
         style="fill:#000000;fill-opacity:1">
        <path
           id="path2143"
           style="fill:#000000;fill-opacity:1;fill-rule:nonzero;stroke:none"
           d="m 0,0 c -0.261,-0.206 -0.522,-0.416 -0.804,-0.588 -1.118,-0.683 -1.011,-1.524 -0.413,-2.511 2.58,-4.255 5.354,-8.388 8.585,-12.162 1.572,-1.836 4.003,-1.81 6.019,-0.869 1.947,0.91 3.625,2.409 3.59,4.96 -0.089,3.755 -2.601,6.386 -4.456,9.266 C 7.497,5.896 7.435,5.856 0,0" />
      </g>
      <g
         transform="matrix(0.35277777,0,0,-0.35277777,-39.463422,229.56809)"
         id="g2149"
         style="fill:#000000;fill-opacity:1">
        <path
           id="path2147"
           style="fill:#000000;fill-opacity:1;fill-rule:nonzero;stroke:none"
           d="M 0,0 C 2.244,0.724 2.975,1.742 1.508,3.888 -0.903,7.415 -3.208,11.015 -5.985,15.234 -6.793,11.838 -7.189,9.101 -7.481,6.299 -8.35,-2.035 -7.848,-2.534 0,0" />
      </g>
      <g
         transform="matrix(0.35277777,0,0,-0.35277777,34.983165,125.0582)"
         id="g2153"
         style="fill:#000000;fill-opacity:1" />
      <g
         transform="matrix(0.35277777,0,0,-0.35277777,34.975157,129.5232)"
         id="g2157"
         style="fill:#000000;fill-opacity:1" />
      <g
         transform="matrix(0.35277777,0,0,-0.35277777,35.678701,129.41353)"
         id="g2161"
         style="fill:#000000;fill-opacity:1" />
      <g
         transform="matrix(0.35277777,0,0,-0.35277777,36.987401,147.66769)"
         id="g2165"
         style="fill:#000000;fill-opacity:1">
        <path
           id="path2163"
           style="fill:#000000;fill-opacity:1;fill-rule:nonzero;stroke:none"
           d="M 0,0 C 0.202,0.215 0.411,0.425 0.617,0.637 0.21,0.544 -0.216,0.517 -0.64,0.484 -0.427,0.335 -0.213,0.173 0,0" />
      </g>
      <g
         transform="matrix(0.35277777,0,0,-0.35277777,35.754937,125.07263)"
         id="g2169"
         style="fill:#000000;fill-opacity:1" />
      <g
         transform="matrix(0.35277777,0,0,-0.35277777,38.698409,139.97386)"
         id="g2173"
         style="fill:#000000;fill-opacity:1" />
      <g
         transform="matrix(0.35277777,0,0,-0.35277777,33.801818,147.62857)"
         id="g2177"
         style="fill:#000000;fill-opacity:1">
        <path
           id="path2175"
           style="fill:#000000;fill-opacity:1;fill-rule:nonzero;stroke:none"
           d="m 0,0 c 0.134,0.106 0.267,0.202 0.401,0.298 -0.192,0 -0.383,0 -0.574,0 C -0.117,0.198 -0.054,0.103 0,0" />
      </g>
      <g
         transform="matrix(0.35277777,0,0,-0.35277777,40.582877,143.99083)"
         id="g2181"
         style="fill:#000000;fill-opacity:1" />
      <g
         transform="matrix(0.35277777,0,0,-0.35277777,36.580648,147.67898)"
         id="g2185"
         style="fill:#000000;fill-opacity:1">
        <path
           id="path2183"
           style="fill:#000000;fill-opacity:1;fill-rule:nonzero;stroke:none"
           d="M 0.75000002,0.37500001 C -2.469,0.37300001 -5.687,0.37100001 -8.906,0.37000001 -13.601,2.224 -15.935,6.737 -19.524,9.838 c -1.196,1.033 -0.051,2.153 0.489,2.952 1.783,2.635 3.763,5.136 5.641,7.708 1.247,1.709 2.883,2.31 4.989,2.242 C -4.079,22.599 0.25300002,22.635 4.582,22.598 6.9386548,22.579315 13.59524,11.157584 11.508,8.931 8.961,6.361 6.408,3.799 3.857,1.234 2.985,0.35700001 1.817,0.55000001 0.75000002,0.37500001"
           sodipodi:nodetypes="cccccccccc" />
      </g>
      <g
         transform="matrix(0.35277777,0,0,-0.35277777,23.744265,140.14788)"
         id="g2189"
         style="fill:#000000;fill-opacity:1">
        <path
           id="path2187"
           style="fill:#000000;fill-opacity:1;fill-rule:nonzero;stroke:none"
           d="m 0,0 c -1.534,3.497 -2.076,7.176 -2.003,10.966 1.658,2.873 3.405,5.7 4.941,8.637 1.6224936,2.085815 2.6596153,2.205654 4.335,1.393 3.72,-1.3 8.581,-1.266 10.881,-4.212 C 21.12,12.985 21.665,7.634 23.2,2.933 23.619,1.651 23.231,0.837 22.442,-0.181 20.222,-3.047 18.04,-5.964 16.133,-9.042 15.151,-10.626 14.211,-10.53 12.904,-9.872 9.952,-8.386 7.062,-6.758 4.038,-5.435 1.558,-4.351 1.366,-1.788 0,0"
           sodipodi:nodetypes="ccccscccccc" />
      </g>
      <g
         transform="matrix(0.35277777,0,0,-0.35277777,47.859871,136.98618)"
         id="g2193"
         style="fill:#000000;fill-opacity:1">
        <path
           id="path2191"
           style="fill:#000000;fill-opacity:1;fill-rule:nonzero;stroke:none"
           d="m -3.367,-12.822 c -1.0695631,-1.595961 -8.588,-5.357709 -12.722339,-6.233582 -1.755428,-0.476932 -8.172457,9.6190674 -9.288661,13.036582 0.835053,4.7958073 4.411094,12.2727412 5.421889,13.3003471 2.648946,1.3559886 10.365014,6.5019199 15.4303149,4.8034009 1.7207087,-1.22835 5.4967864,-10.9280199 4.98983494,-12.6150781"
           sodipodi:nodetypes="cccccc" />
      </g>
      <g
         transform="matrix(0.35277777,0,0,-0.35277777,41.036267,123.9956)"
         id="g2197"
         style="fill:#000000;fill-opacity:1">
        <path
           id="path2195"
           style="fill:#000000;fill-opacity:1;fill-rule:nonzero;stroke:none"
           d="M -0.37500001,0.1875 C 4.029,-2.2575 8.012,-5.2685 11.642,-8.7525 c 1.45034,-1.567359 1.655932,-12.891956 -0.466,-13.887 -3.932,-1.177 -7.835,-3.655 -11.69000001,-3.543 -3.92399999,0.115 -6.76024999,2.963 -10.02024999,5.382 -1.293,0.959 -3.18775,2.462 -3.90775,4.151 -2.025,5.025 -2.343,10.021 0.263,14.966 0.46765,0.8413301 9.035,2.484 13.80399999,1.871"
           sodipodi:nodetypes="cccccccc" />
      </g>
      <g
         transform="matrix(0.35277777,0,0,-0.35277777,27.309402,125.6109)"
         id="g2201"
         style="fill:#000000;fill-opacity:1">
        <path
           id="path2199"
           style="fill:#000000;fill-opacity:1;fill-rule:nonzero;stroke:none"
           d="M 0,0 C 5.813,5.419 12.204981,4.0571942 19.375,3.0873107 23.039915,2.6665556 21.554205,-11.001566 20.785,-13.205 17.169,-15.746 13.489,-18.202 9.968,-20.868 8.48,-21.995 7.287,-22.31 5.501,-21.515 c -2.227,0.993 -4.655,1.533 -6.985,2.303 -4.706,1.554 -5.041,1.815 -4.432,6.496"
           sodipodi:nodetypes="ccccccc" />
        <g
           id="g1220"
           transform="matrix(-1,0,0,1,-826.35159,0)">
          <path
             id="path1201"
             style="display:inline;fill:#000000;fill-opacity:1;fill-rule:nonzero;stroke:none"
             d="m -305.06398,-61.43019 c -3.219,-0.002 -6.437,-0.004 -9.656,-0.005 -4.695,1.854 -7.029,6.367 -10.618,9.468 -1.196,1.033 -0.051,2.153 0.489,2.952 1.783,2.635 3.763,5.136 5.641,7.708 1.247,1.709 2.883,2.31 4.989,2.242 4.326,-0.141 8.658,-0.105 12.987,-0.142 2.35666,-0.01868 9.01324,-11.440416 6.926,-13.667 -2.547,-2.57 -5.1,-5.132 -7.651,-7.697 -0.872,-0.877 -2.04,-0.684 -3.107,-0.859"
             sodipodi:nodetypes="cccccccccc" />
          <path
             id="path1203"
             style="display:inline;fill:#000000;fill-opacity:1;fill-rule:nonzero;stroke:none"
             d="m -342.20057,-40.457189 c -1.534,3.497 -1.65412,7.129125 -1.58112,10.919125 1.658,2.873 2.98312,5.746875 4.51912,8.683875 1.62249,2.085815 2.65962,2.205654 4.335,1.393 3.72,-1.3 8.581,-1.266 10.881,-4.212 2.966,-3.799 3.511,-9.15 5.046,-13.851 0.419,-1.282 0.031,-2.096 -0.758,-3.114 -2.22,-2.866 -4.402,-5.783 -6.309,-8.861 -0.982,-1.584 -1.922,-1.488 -3.229,-0.83 -2.952,1.486 -5.842,3.114 -8.866,4.437 -2.48,1.084 -2.672,3.647 -4.038,5.435"
             sodipodi:nodetypes="ccccscccccc" />
          <path
             id="path1205"
             style="display:inline;fill:#000000;fill-opacity:1;fill-rule:nonzero;stroke:none"
             d="m -277.20838,-44.316892 c -1.06956,-1.595961 -8.588,-5.357709 -12.72234,-6.233582 -1.75543,-0.476932 -8.17246,9.619067 -9.28866,13.036582 0.83505,4.795807 4.41109,12.272741 5.42189,13.300347 2.64895,1.355989 10.36501,6.50192 15.43031,4.803401 1.72071,-1.22835 5.49679,-10.92802 4.98984,-12.615078"
             sodipodi:nodetypes="cccccc" />
          <path
             id="path1207"
             style="display:inline;fill:#000000;fill-opacity:1;fill-rule:nonzero;stroke:none"
             d="m -293.55888,5.5163041 c 4.404,-2.445 8.387,-5.456 12.017,-8.9399999 1.45034,-1.567359 1.65593,-12.8919562 -0.466,-13.8870002 -3.932,-1.177 -7.835,-3.655 -11.69,-3.543 -3.924,0.115 -6.76025,2.963 -10.02025,5.382 -1.293,0.959 -3.18775,2.462 -3.90775,4.151 -2.025,5.0250002 -2.343,10.0210002 0.263,14.9660001 0.46765,0.8413301 9.035,2.484 13.804,1.871"
             sodipodi:nodetypes="cccccccc" />
          <path
             id="path1209"
             style="fill:#000000;fill-opacity:1;fill-rule:nonzero;stroke:none"
             d="m -332.09468,0.75 c 5.813,5.419 12.20498,4.0571942 19.375,3.0873107 3.66492,-0.4207551 2.17921,-14.0888767 1.41,-16.2923107 -3.616,-2.541 -7.296,-4.997 -10.817,-7.663 -1.488,-1.127 -2.681,-1.442 -4.467,-0.647 -2.227,0.993 -4.655,1.533 -6.985,2.303 -4.706,1.554 -5.041,1.815 -4.432,6.496"
             sodipodi:nodetypes="ccccccc" />
        </g>
      </g>
      <g
         transform="matrix(0.35277777,0,0,-0.35277777,-35.785643,45.861356)"
         id="g2205"
         style="fill:#000000;fill-opacity:1">
        <path
           id="path2203"
           style="fill:#000000;fill-opacity:1;fill-rule:nonzero;stroke:none"
           d="M 0,0 C 2.686,-0.649 3.372,0.211 3.187,2.518 2.836,6.893 2.385,11.259 1.873,16.715 -0.47,13.497 -2.144,11.284 -3.727,9.008 -8.634,1.952 -8.589,2.075 0,0" />
      </g>
      <g
         transform="matrix(0.35277777,0,0,-0.35277777,-60.719623,36.64292)"
         id="g2209"
         style="fill:#000000;fill-opacity:1">
        <path
           id="path2207"
           style="fill:#000000;fill-opacity:1;fill-rule:nonzero;stroke:none"
           d="M 0,0 C -2.811,-5.437 -4.082,-10.315 -5.878,-15.414 H 5.408 C 4.352,-10.254 2.342,-5.644 0,0" />
      </g>
      <g
         id="g2215">
        <g
           transform="matrix(0.35277777,0,0,-0.35277777,50.294179,141.91541)"
           id="g2213"
           style="fill:#000000;fill-opacity:1">
          <path
             id="path2211"
             style="fill:#000000;fill-opacity:1;fill-rule:nonzero;stroke:none;stroke-width:1.33333"
             d="M 436.98828 4.6757812 A 432.32054 432.5243 0 0 0 4.6679688 437.20117 A 432.32054 432.5243 0 0 0 436.98828 869.72461 A 432.32054 432.5243 0 0 0 869.30859 437.20117 A 432.32054 432.5243 0 0 0 436.98828 4.6757812 z M 436.66406 18.484375 A 418.49325 418.69527 0 0 1 436.66602 18.484375 A 418.49325 418.69527 0 0 1 436.98438 18.484375 A 418.49325 418.69527 0 0 1 855.47852 437.17969 A 418.49325 418.69527 0 0 1 436.98438 855.875 A 418.49325 418.69527 0 0 1 18.490234 437.17969 A 418.49325 418.69527 0 0 1 436.66406 18.484375 z M 436.88867 27.484375 A 409.49758 409.69525 0 0 0 28.552734 407.64062 A 55.861438 55.861438 0 0 1 76.191406 380.95312 A 55.861438 55.861438 0 0 1 101.10742 386.82031 A 55.861438 55.861438 0 0 1 101.61523 387.07617 A 55.874998 55.874998 0 0 1 101.66797 387.10352 A 55.861438 55.861438 0 0 1 102.17383 387.36523 A 55.874998 55.874998 0 0 1 102.22656 387.39258 A 55.861438 55.861438 0 0 1 102.72852 387.66016 A 55.874998 55.874998 0 0 1 102.78125 387.68945 A 55.861438 55.861438 0 0 1 103.2793 387.96094 A 55.874998 55.874998 0 0 1 103.33203 387.99023 A 55.861438 55.861438 0 0 1 103.82812 388.26953 A 55.874998 55.874998 0 0 1 103.88086 388.29883 A 55.861438 55.861438 0 0 1 104.37305 388.58398 A 55.874998 55.874998 0 0 1 116.79102 398.41992 A 55.874998 55.874998 0 0 1 117.56445 399.25 A 55.838388 55.838388 0 0 1 117.64648 399.33984 A 55.874998 55.874998 0 0 1 117.98438 399.7168 A 55.838388 55.838388 0 0 1 118.06641 399.80859 A 55.874998 55.874998 0 0 1 118.40039 400.18945 A 55.838388 55.838388 0 0 1 128.57617 417.1875 A 308.00001 308.00001 0 0 1 435.88672 128 A 308.00001 308.00001 0 0 1 436 128 A 308.00001 308.00001 0 0 1 743.48828 418.28711 A 56.080188 56.080188 0 0 1 796.41016 380.76562 A 56.080188 56.080188 0 0 1 845.57227 409.86328 A 409.49758 409.69525 0 0 0 436.98438 27.484375 A 409.49758 409.69525 0 0 0 436.89062 27.484375 A 409.49758 409.69525 0 0 1 436.88867 27.484375 z M 433.04688 39.980469 C 442.22128 39.966939 442.75953 41.217339 447.08203 52.013672 C 455.22736 72.363009 463.38986 92.70638 471.50586 113.06641 C 473.54586 118.18241 473.20192 118.62069 467.66992 118.80469 C 454.08592 119.25802 453.87051 119.33691 449.33984 106.76758 C 447.87451 102.70224 445.92589 101.01955 441.70312 101.43555 C 438.84579 101.71821 435.94003 101.49144 433.05469 101.49414 C 429.50403 101.49814 425.94625 101.62986 422.40625 101.45508 C 419.71425 101.32308 418.28419 102.57964 417.49219 104.93164 C 416.36286 108.28631 415.23675 111.64143 414.10742 114.99609 C 413.25142 117.53747 411.8463 119.09005 408.79297 118.85938 C 405.4823 118.60995 402.1365 118.8967 398.8125 118.7793 C 394.2525 118.61796 393.60202 117.79704 395.16602 113.5957 C 398.17536 105.5077 401.38077 97.491795 404.52344 89.453125 C 410.32743 74.609125 416.27662 59.818624 421.85938 44.890625 C 423.16472 41.402625 424.83211 40.105016 428.55078 40.041016 C 430.25011 40.011686 431.73615 39.982409 433.04688 39.980469 z M 374.25781 41.462891 C 377.00237 41.412211 378.24877 42.861 378.16211 46.3125 C 377.95144 54.549833 379.60198 62.609316 379.83398 70.806641 C 380.06865 79.171971 381.29358 87.508611 382.01758 95.863281 C 382.62824 102.90861 382.14992 110.03358 383.66992 117.01758 C 384.31925 120.00558 382.65456 121.4367 379.95312 122.2207 C 376.98112 123.08337 374.0872 124.20273 371.14453 125.16406 C 365.9152 126.87206 365.90956 126.85797 362.82812 122.05664 C 355.41612 110.50597 348.02294 98.944629 340.57227 87.417969 C 339.77227 86.180629 339.15698 84.679701 337.20898 83.957031 C 337.20898 90.693031 336.57267 97.33308 337.38867 103.78906 C 338.19934 110.21039 338.32578 116.57947 338.42578 122.99414 C 338.44308 124.10347 338.42883 125.21764 338.51953 126.32031 C 339.28353 135.69764 339.28959 135.69747 329.93359 138.71484 C 321.17226 141.54018 321.27209 141.48006 316.35742 133.39062 C 305.32275 115.22529 294.1807 97.124707 283.08203 78.998047 C 282.27403 77.678047 281.46192 76.36058 280.66992 75.03125 C 279.65925 73.33658 280.18161 72.073846 281.84961 71.228516 C 282.43494 70.932516 283.12033 70.841656 283.73633 70.597656 C 296.10966 65.685644 296.13203 65.668934 302.9707 77.044922 C 308.65737 86.508922 314.27903 96.0108 319.92969 105.49609 C 320.42436 105.43479 320.92002 105.37445 321.41602 105.31445 C 320.54536 92.10515 319.83375 78.882068 318.73242 65.691406 C 318.25642 59.987402 318.29409 59.293255 323.60742 57.419922 C 327.15142 56.170588 330.73824 55.041286 334.26758 53.751953 C 337.19558 52.681286 338.9443 53.339985 340.68164 56.222656 C 347.42564 67.403989 354.49333 78.391392 361.5 89.414062 C 362.17333 90.472742 362.395 92.019879 364.59766 92.449219 C 363.091 78.175879 361.68216 64.074046 360.04883 49.998047 C 359.70883 47.068713 360.38852 45.285161 363.22852 44.423828 C 366.19119 43.523828 369.09657 42.359802 372.11523 41.730469 C 372.91023 41.565219 373.62446 41.474588 374.25781 41.462891 z M 530.05078 52.550781 C 534.36571 52.597851 538.65 54.761453 542.84766 56.189453 C 545.749 57.174786 545.69755 60.075391 545.96289 62.275391 C 547.12289 71.914059 547.87512 81.602529 548.92188 91.255859 C 549.99255 101.12252 551.18445 110.97622 552.42188 120.82422 C 553.05522 125.86155 553.11778 130.93799 554.06445 135.97266 C 554.75245 139.62732 553.16583 140.71558 549.3125 139.90625 C 546.0765 139.22758 542.92994 138.13163 539.72461 137.29297 C 537.11527 136.61163 535.82222 135.1728 535.21289 132.35547 C 534.45022 128.83147 534.22433 125.34807 534.23633 121.80273 C 534.24433 119.68273 533.95583 117.71515 531.5625 117.03516 C 523.9185 114.86316 516.25561 112.75185 508.59961 110.61719 C 506.23961 110.43585 504.84944 111.57378 503.63477 113.42188 C 501.56944 116.56455 499.18202 119.49978 497.16602 122.67188 C 495.97136 124.55188 494.61889 124.77522 492.68555 124.19922 C 489.08822 123.12855 485.39441 122.35696 481.84375 121.1543 C 477.80108 119.7863 477.51341 118.5282 480.21875 114.9082 C 493.46275 97.18157 506.74105 79.480719 520.01172 61.775391 C 520.27705 61.420725 520.62211 61.127484 520.88477 60.771484 C 523.09944 57.790151 524.65388 53.173302 528.19922 52.667969 C 528.81672 52.579969 529.43436 52.544057 530.05078 52.550781 z M 602.76953 76.160156 C 603.97382 76.062056 605.50866 76.809652 608.01758 78.226562 C 608.98291 78.771902 609.88997 79.475221 610.91797 79.837891 C 615.48997 81.449891 616.48515 84.642293 617.14648 89.376953 C 619.31315 104.90762 616.43225 120.70573 620.37891 136.67773 C 625.48425 127.5604 630.42275 118.7464 635.35742 109.92773 C 636.76142 107.41707 638.1513 104.898 639.55664 102.38867 C 639.88064 101.80734 640.14285 101.14731 640.60156 100.69531 C 645.67889 95.694 648.80042 101.86691 652.73242 103.01758 C 655.70442 103.88824 657.47472 105.93152 655.39062 109.60352 C 647.85329 122.89019 640.51738 136.29039 633.10938 149.65039 C 629.35328 156.42639 625.6338 163.22447 621.8418 169.98047 C 619.52847 174.10447 618.89238 174.261 614.48438 172.26367 C 613.88028 171.989 613.31594 171.62067 612.69727 171.38867 C 606.06127 168.89934 603.64548 164.78308 603.02148 157.09375 C 601.87748 142.99642 603.71326 128.72275 600.05859 113.94141 C 594.29859 124.35208 589.12126 134.11306 583.55859 143.65039 C 578.02792 153.13439 579.33941 153.12117 569.96875 147.5625 C 563.88075 143.9505 563.79362 143.39983 567.12695 137.42383 C 577.58828 118.67183 588.01115 99.898799 598.39648 81.105469 C 600.21823 77.809219 601.22115 76.286276 602.76953 76.160156 z M 250.77734 84.669922 C 252.02431 84.610622 252.82992 85.774 254.60742 88.46875 C 259.85275 96.41942 265.00177 104.43261 270.14844 112.44727 C 277.09243 123.25927 284.00953 134.08897 290.9082 144.93164 C 294.19753 150.10097 294.11498 150.33677 288.95898 153.66211 C 287.65365 154.50344 286.36073 155.36064 285.05273 156.19531 C 279.07807 160.00464 278.74609 159.9685 274.74609 153.8125 C 270.17942 146.7845 265.71005 139.69577 261.13672 132.53711 C 253.93138 136.02111 248.045 140.72225 241.625 144.54492 C 239.00366 146.10625 238.5547 147.86062 240.33203 150.50195 C 244.53736 156.74995 248.5938 163.09947 252.61914 169.46484 C 255.58447 174.15418 255.45908 175.07748 250.95508 178.02148 C 238.28308 186.30415 241.6033 186.00382 234.41797 175.14648 C 223.29263 158.33848 212.58172 141.25413 201.76172 124.24609 C 198.97638 119.86876 199.24777 118.54487 202.89844 115.1582 C 203.22377 114.85687 203.55372 114.5592 203.90039 114.2832 C 212.16972 107.6992 213.38555 107.96125 218.82422 116.91992 C 221.69755 121.65325 224.9073 126.18073 227.7793 130.91406 C 229.01397 132.94873 230.26189 133.06486 232.06055 131.88086 C 237.79789 128.10352 243.53526 124.3268 249.30859 120.60547 C 251.89126 118.94013 251.2971 117.14706 249.89844 115.03906 C 246.34644 109.68439 242.86002 104.28409 239.41602 98.857422 C 236.16402 93.730752 236.31609 93.219703 241.35742 90.095703 C 243.05209 89.045043 244.71577 87.945576 246.39844 86.878906 C 248.57018 85.501666 249.80748 84.716002 250.77734 84.669922 z M 685.99609 127.01562 C 686.99926 126.96762 687.98549 127.91797 689.79883 129.91797 C 699.49749 140.6113 710.98545 149.31425 721.54688 159.04492 C 722.84955 160.24625 724.13498 161.4783 725.32031 162.79297 C 728.90835 166.76763 728.98017 167.14811 725.21484 170.91211 C 717.11884 179.00811 719.05091 178.77832 711.15625 171.20898 C 704.60291 164.92632 697.85397 158.8518 691.2793 152.5918 C 689.48597 150.88513 688.05505 150.5941 686.26172 152.50195 C 677.69372 161.62462 677.47877 159.12063 685.77344 166.7793 C 691.6321 172.1873 697.51739 177.55623 703.24805 183.10156 C 705.82539 185.59489 706.36184 187.18802 703.58984 190.05469 C 695.81117 198.10002 695.91207 198.26304 687.80273 190.3457 C 681.47607 184.1697 675.30705 177.82822 667.76172 172.32422 C 664.82438 175.31222 661.94311 178.36215 658.92578 181.27148 C 656.51111 183.60082 656.24317 185.60094 659.08984 187.82227 C 667.31251 194.23961 673.86641 202.46574 682.06641 208.95508 C 687.42508 213.19641 687.19465 213.97299 682.58398 218.84766 C 681.67065 219.81432 680.67269 220.70365 679.80469 221.70898 C 677.44336 224.44765 675.30589 224.50659 672.56055 221.91992 C 660.63522 210.68525 648.51369 199.66522 636.56836 188.45312 C 631.58036 183.77046 631.6775 183.61936 636.07617 178.94336 C 651.4015 162.65269 666.73251 146.36619 682.08984 130.10352 C 683.97317 128.10886 684.99292 127.06372 685.99609 127.01562 z M 435.98047 134.44336 C 422.42176 134.44536 408.95988 135.35578 395.53516 137.17383 C 374.44387 140.03179 353.45976 145.19352 333.45703 152.45703 C 321.04319 156.95711 308.8734 162.30061 297.14062 168.4082 C 291.29049 171.44938 285.43529 174.7518 279.80859 178.16602 C 259.00571 190.80739 239.75043 205.97825 222.58984 223.25977 C 214.41534 231.48995 206.6179 240.31078 199.44141 249.45508 C 186.20919 266.31006 174.81115 284.54134 165.45508 303.81445 C 159.5223 316.02982 154.38051 328.74918 150.15039 341.69531 C 146.34395 353.33496 143.22201 365.32957 140.87891 377.32031 C 137.50314 394.54283 135.65201 412.03046 135.32812 429.51758 C 134.93461 450.88521 136.80464 472.09282 140.92188 493.07422 C 142.87348 502.99733 145.38954 513.08515 148.37695 522.85156 C 152.33913 535.83711 157.2257 548.66567 162.93555 561.02734 C 165.1704 565.87598 167.49155 570.57129 169.96875 575.26758 C 173.63658 582.22251 177.52605 588.94737 181.70312 595.56445 C 188.95035 607.04428 196.9951 618.05424 205.6875 628.40039 C 214.4386 638.82195 223.84936 648.59196 233.87891 657.69336 C 249.7122 672.06346 267.06711 684.73019 285.60547 695.42773 C 304.04932 706.08928 323.81153 714.8382 344.05078 721.32617 C 355.14874 724.89469 366.6527 727.85182 378.00391 730.08008 C 395.18146 733.45327 412.62437 735.31969 430.06445 735.66211 C 445.62295 735.96636 461.04356 735.07252 476.42578 732.99023 C 497.51706 730.13226 518.50117 724.97057 538.50391 717.70703 C 550.91773 713.20698 563.08764 707.86343 574.82031 701.75586 C 580.67042 698.71466 586.52564 695.41225 592.15234 691.99805 C 612.95523 679.35666 632.21048 664.18581 649.37109 646.9043 C 657.54556 638.67411 665.34304 629.85324 672.51953 620.70898 C 685.75177 603.85398 697.14979 585.62274 706.50586 566.34961 C 712.43862 554.13425 717.57846 541.41488 721.80859 528.46875 C 725.61506 516.82909 728.73895 504.83449 731.08203 492.84375 C 734.45779 475.62124 736.30891 458.13359 736.63281 440.64648 C 737.02634 419.27884 735.15617 398.07124 731.03906 377.08984 C 729.08746 367.16672 726.57139 357.0789 723.58398 347.3125 C 719.62182 334.32695 714.7352 321.49838 709.02539 309.13672 C 706.77639 304.25748 704.44014 299.53265 701.94531 294.80664 C 698.27502 287.85272 694.38512 281.13269 690.20508 274.51562 C 682.95383 263.03798 674.90556 252.0314 666.20898 241.6875 C 657.45427 231.26843 648.04102 221.50328 638.00781 212.4043 C 622.16986 198.03974 604.80941 185.37679 586.26758 174.68555 C 567.82012 164.02999 548.05616 155.28856 527.81445 148.80664 C 516.7145 145.24205 505.21236 142.28957 493.85938 140.06445 C 484.28706 138.19017 474.68298 136.78651 465.00977 135.84766 C 455.35999 134.91438 445.70882 134.44475 435.98047 134.44336 z M 436.08594 145.42578 C 461.88727 146.12978 487.20961 149.97579 512.07227 156.95312 C 549.02961 167.32522 582.67089 184.3653 613.46289 207.16797 C 636.50022 224.22797 655.45639 245.07646 671.62305 268.70312 C 697.60305 306.67256 714.01024 348.39709 721.76758 393.62109 C 724.09158 407.16913 725.64597 420.92336 725.55664 434.58203 C 725.46594 448.4647 724.07565 462.42632 721.70898 476.20898 C 715.96098 509.69165 705.56953 541.60346 689.49219 571.57812 C 678.7682 591.57289 666.18262 610.29322 651.25195 627.44922 C 623.61462 659.20788 589.34383 681.55334 551.28516 698.63867 C 524.99583 710.44134 497.42838 717.85321 468.98438 721.81055 C 449.67362 724.49721 430.29652 724.91386 410.75781 722.64453 C 381.24848 719.21786 352.77273 712.19958 325.41406 700.76758 C 297.40869 689.06491 271.63261 673.56875 248.22461 654.19141 C 209.99127 622.54075 184.51543 582.0439 166.52344 536.36523 C 156.9621 512.08923 151.30872 486.81111 148.14062 461.00977 C 144.05796 427.76444 148.38184 395.15671 156.95117 362.99805 C 162.4525 342.35538 169.86869 322.40063 179.66602 303.41797 C 194.82202 274.05263 213.36869 247.04907 237.66602 224.42773 C 253.29136 209.87973 270.71597 197.60362 289.16797 186.87695 C 314.6413 172.06895 341.75572 161.19574 370.37305 154.20508 C 386.30239 150.31308 402.397 147.39789 418.84766 146.47656 C 424.58366 146.15523 430.3086 145.39645 436.08594 145.42578 z M 173.97656 149.54102 C 178.28193 149.61722 182.37225 151.22736 186.34375 152.94336 C 188.59041 153.91402 188.86983 155.7922 187.67383 157.9082 C 186.80183 159.45087 186.06986 161.07536 185.14453 162.58203 C 183.87653 164.64736 182.76888 166.92665 181.07422 168.58398 C 178.89288 170.71465 176.4604 168.40161 174.17773 168.07227 C 167.36973 167.09227 162.55798 170.18217 158.83398 175.32617 C 155.29398 180.21284 154.64475 185.75123 157.69141 190.97656 C 162.93008 199.96323 170.00375 207.2037 179.98242 210.95703 C 186.89709 213.55836 191.96469 212.0195 197.16602 206.1875 C 201.62602 201.1875 202.20422 196.10152 199.04688 189.63086 C 196.14545 183.68819 196.14437 183.68891 201.8457 180.12891 C 202.2217 179.89425 202.57898 179.62901 202.95898 179.40234 C 212.09765 173.93164 212.764 174.15994 216.63867 184.33594 C 219.628 192.18927 219.48894 200.01932 215.59961 207.47266 C 208.80627 220.48999 198.65245 228.79716 186.42578 229.42383 C 173.31245 229.45583 164.77789 225.48188 157.33789 219.19922 C 148.20189 211.48455 141.0298 202.56633 139.3418 189.98633 C 138.50314 183.73699 139.46741 177.89762 141.96875 172.62695 C 147.77275 160.40029 157.11427 151.978 170.96094 149.75 C 171.97868 149.5865 172.98297 149.52345 173.97656 149.54102 z M 748.44336 193.50195 C 749.8674 193.47745 750.84403 194.8448 752.85938 197.93555 C 759.50605 208.13421 766.24575 218.27944 772.59375 228.66211 C 777.27775 236.32477 778.18225 244.1983 773.04492 252.40234 C 767.59692 261.10234 753.36587 266.8361 742.7832 260.27344 C 741.48187 259.4681 740.07284 258.83619 738.46484 257.99219 C 736.17551 270.07885 730.11461 280.50119 725.47461 291.47852 C 723.83461 295.35586 722.65111 295.33219 720.00977 291.99219 C 719.87244 291.81752 719.71989 291.65586 719.58789 291.47852 C 710.76389 279.63186 710.8445 279.66381 716.45117 265.50781 C 718.88984 259.34914 721.87184 253.41966 723.70117 246.98633 C 724.5825 243.88766 724.15294 241.39167 722.82227 238.76367 C 720.53694 234.25167 719.51684 233.90919 715.32617 236.61719 C 709.1915 240.58385 703.00089 244.48271 697.07812 248.74805 C 694.11012 250.88671 692.28956 250.26239 690.60156 247.51562 C 682.76419 234.76229 680.50327 237.55813 693.72461 228.85547 C 710.36594 217.9008 726.96609 206.88435 743.60742 195.92969 C 745.9565 194.38269 747.33577 193.52097 748.44336 193.50195 z M 115.09961 220.75781 C 118.70229 220.66821 122.40981 221.45838 126.18164 223.0293 C 128.68431 224.07063 129.68507 225.47089 128.06641 228.10156 C 126.67707 230.36156 125.46441 232.74011 124.31641 235.13477 C 122.62041 238.67477 120.67005 241.25521 116.13672 239.06055 C 114.18872 238.11655 112.16209 239.05455 110.46875 240.14258 C 105.69675 243.20791 103.11131 247.7023 102.55664 253.29297 C 102.36464 255.22363 102.15396 257.36382 104.2793 258.64648 C 106.5753 260.03182 108.78245 259.03977 110.45312 257.75977 C 114.13322 254.93844 117.54605 251.75848 120.99805 248.64648 C 123.46605 246.41848 125.67924 243.89145 128.25391 241.80078 C 135.57124 235.85811 143.58747 233.4926 152.85547 237.08594 C 162.5648 240.84994 167.61214 248.19694 168.88281 258.09961 C 169.50418 262.95161 167.58408 267.68536 165.71875 272.19336 C 162.70675 279.47336 158.14983 285.65303 152.3125 290.95703 C 147.60983 295.23303 141.75632 296.20506 136.45898 297.28906 C 134.96831 297.13839 134.0777 297.10122 133.20703 296.95312 C 119.75903 294.65979 119.03106 293.03421 125.40039 280.93555 C 127.02839 277.84488 128.66204 277.17283 132.2207 278.04883 C 142.05403 280.46616 151.35269 272.73688 151.66602 262.43555 C 151.84069 256.72221 146.33486 253.03183 141.13086 255.42383 C 138.67086 256.55449 136.79488 258.46213 134.9082 260.35547 C 130.53087 264.74747 126.20391 269.1617 121.14258 272.8457 C 106.68791 283.36837 87.654855 275.43539 85.492188 257.77539 C 84.885511 252.81806 86.522062 248.05861 88.414062 243.61328 C 91.396739 236.60928 95.738521 230.35507 101.81055 225.67773 C 106.0098 222.44298 110.46759 220.87301 115.09961 220.75781 z M 743.40234 455.15039 A 308.00001 308.00001 0 0 1 436 744 A 308.00001 308.00001 0 0 1 128.67383 456.375 A 55.838388 55.838388 0 0 1 76.337891 492.75 A 55.838388 55.838388 0 0 1 66.238281 491.82812 A 55.874998 55.874998 0 0 1 65.720703 491.73047 A 55.838388 55.838388 0 0 1 65.679688 491.72266 A 55.874998 55.874998 0 0 1 65.474609 491.68164 A 55.838388 55.838388 0 0 1 65.013672 491.58984 A 55.874998 55.874998 0 0 1 65.003906 491.58789 A 55.874998 55.874998 0 0 1 34.451172 473.94141 A 55.861438 55.861438 0 0 1 34.082031 473.52148 A 55.874998 55.874998 0 0 1 34.037109 473.46875 A 55.861438 55.861438 0 0 1 33.671875 473.04492 A 55.874998 55.874998 0 0 1 33.652344 473.02148 A 55.861438 55.861438 0 0 1 33.267578 472.56445 A 55.874998 55.874998 0 0 1 33.222656 472.51172 A 55.861438 55.861438 0 0 1 32.916016 472.13672 A 55.874998 55.874998 0 0 1 32.857422 472.06445 A 55.861438 55.861438 0 0 1 32.824219 472.02539 A 55.861438 55.861438 0 0 1 28.494141 465.89453 A 409.49758 409.69525 0 0 0 436.98438 846.875 A 409.49758 409.69525 0 0 0 845.62109 463.73828 A 56.080188 56.080188 0 0 1 796.41016 492.92578 A 56.080188 56.080188 0 0 1 743.40234 455.15039 z M 713.45508 602.12891 C 714.62517 602.19701 715.97644 603.06481 718.10156 604.63281 C 725.43623 610.04614 725.42872 610.04092 719.64062 617.54492 C 718.69262 618.77292 717.94755 620.16474 716.93555 621.33008 C 710.41822 628.85408 710.38191 627.13732 718.39258 633.58398 C 730.97658 643.71065 743.93333 653.37409 756.72266 663.24609 C 761.088 666.6168 761.49141 667.50872 757.96875 671.63672 C 748.75008 682.43805 752.63797 683.33461 740.91797 674.11328 C 728.91797 664.66928 716.85316 655.31056 704.78516 645.95312 C 703.39983 644.87979 701.81691 644.0606 700.26758 643.08594 C 696.21824 647.44194 692.6175 651.91813 689.4375 656.7168 C 687.60016 659.49013 685.55339 660.1411 682.89062 657.89844 C 682.55196 657.6131 682.15684 657.39489 681.82617 657.10156 C 673.92217 650.07356 673.2115 651.68397 679.6875 643.30664 C 689.29683 630.87464 698.91546 618.44864 708.57812 606.05664 C 710.74497 603.27789 711.95067 602.04137 713.45508 602.12891 z M 164.09375 603.8418 C 165.91908 603.74046 166.7918 604.71746 167.5918 605.82812 C 177.4198 619.48689 187.20572 633.17753 197.12305 646.76953 C 198.97239 649.30286 198.71536 651.17292 196.44336 653.04492 C 196.10069 653.32625 195.74839 653.59643 195.40039 653.87109 C 187.40439 660.2098 187.14767 660.13851 181.26367 651.83984 C 176.27034 644.79714 171.21037 637.80037 166.0957 630.8457 C 163.2917 627.0297 162.39633 626.95978 158.59766 629.67188 C 151.71633 634.58255 151.74158 634.56136 156.65625 641.41602 C 161.55891 648.25469 166.24703 655.25536 171.3457 661.94336 C 173.5697 664.86202 172.76166 666.49444 170.375 668.53711 C 162.167 675.56111 161.49977 675.49579 155.39844 666.81445 C 150.94377 660.47179 146.42998 654.16969 141.83398 647.92969 C 139.23932 644.40835 138.32708 644.34884 134.81641 646.82617 C 134.27375 647.2075 133.81664 647.70637 133.2793 648.0957 C 124.30463 654.61037 124.35743 654.56758 131.13477 663.62891 C 136.17344 670.36491 141.11614 677.17807 145.9668 684.05273 C 148.9108 688.22473 148.61466 689.72342 144.22266 692.69141 C 136.14 698.15008 136.89666 698.84616 131.11133 690.54883 C 122.62866 678.38216 113.64404 666.56787 104.9707 654.5332 C 100.80937 648.75987 100.90129 648.67531 106.39062 644.69531 C 124.14005 631.82864 141.89234 618.96919 159.65234 606.11719 C 161.08567 605.07985 162.56308 604.09113 164.09375 603.8418 z M 662.00195 662.35938 C 663.28946 662.2822 664.54027 662.90628 665.78906 664.42578 C 680.11839 681.85911 694.5675 699.19514 708.91016 716.61914 C 712.54883 721.03781 712.22774 722.82062 707.70508 726.50195 C 699.31308 733.33529 699.27907 733.36353 692.17773 725.01953 C 688.45107 720.63953 684.85119 716.15355 681.22852 711.68555 C 678.03652 707.75088 677.92453 707.71161 674.14453 710.82227 C 668.5192 715.45161 662.90308 720.08928 656.81641 725.10938 C 663.04175 732.77205 668.68711 739.86912 674.50977 746.81445 C 677.00311 749.78779 676.9616 751.58842 673.71094 754.31641 C 664.20027 762.29641 664.26812 762.57542 656.18945 752.96875 C 642.80545 737.05542 629.60355 720.98808 616.21289 705.08008 C 614.17689 702.66141 614.13651 700.95686 616.58984 699.01953 C 619.36717 696.82486 622.1002 694.56619 624.76953 692.24219 C 626.92686 690.36352 628.42117 690.62655 630.20117 692.94922 C 634.50517 698.56788 639.10362 703.96071 643.51562 709.49805 C 645.40239 711.86605 646.84953 713.02773 649.76953 710.28906 C 654.5962 705.75706 659.89439 701.70877 665.15039 697.66211 C 667.31839 695.99411 667.22052 694.89173 665.50586 692.92773 C 661.28986 688.09707 657.39766 682.98486 653.23633 678.10352 C 648.83766 672.94752 648.83755 672.33848 653.96289 668.14648 C 655.67489 666.74515 657.16536 665.06737 658.91602 663.7207 C 659.97711 662.90345 661.00055 662.41932 662.00195 662.35938 z M 213.07617 665.34766 C 214.12446 665.31266 215.22969 665.85823 216.54102 667.13281 C 218.75702 669.28748 221.17551 671.2325 223.46484 673.3125 C 224.28217 674.0565 225.00835 674.91495 225.03906 676.12695 C 225.18173 677.92695 223.85036 678.88105 222.81836 680.01172 C 207.44902 696.84505 192.0816 713.67838 176.71094 730.51172 C 173.08294 734.48505 173.09722 734.46064 168.95312 730.69531 C 167.15312 729.05798 165.21397 727.57497 163.41797 725.93359 C 160.56997 723.33359 160.41641 721.57452 162.95508 718.61719 C 166.26841 714.75852 169.66875 710.97199 173.10742 707.22266 C 185.07942 694.17599 197.18953 681.25335 208.99219 668.05469 C 210.47344 666.39869 211.72836 665.3927 213.07617 665.34766 z M 244.89844 692.9707 C 245.90552 692.9088 247.17397 693.56537 249.26172 694.79688 C 259.81505 701.01955 259.81445 701.01956 259.81445 713.21289 C 259.81545 724.97022 259.7938 736.72509 259.8418 748.48242 C 259.8498 750.35442 259.40836 752.31275 260.56836 754.69141 C 266.99502 743.92875 273.19 733.55683 279.38867 723.1875 C 280.066 722.05283 280.82832 720.96921 281.45898 719.81055 C 283.23232 716.55588 285.43401 716.35481 288.52734 718.24414 C 300.48067 725.54681 299.56695 723.77086 292.62695 735.26953 C 282.12695 752.66953 271.72361 770.1252 261.23828 787.5332 C 258.32761 792.36654 258.26178 792.32802 253.06445 789.55469 C 242.49512 783.91602 242.49609 783.91655 242.49609 771.92188 L 242.49609 731.30078 C 237.95342 735.49278 236.3745 739.69094 234.0625 743.34961 C 229.70116 750.25494 225.64297 757.35389 221.4043 764.33789 C 219.14297 768.06456 217.73155 768.3947 213.93555 766.33203 C 203.28622 760.5467 203.39398 760.57041 209.69531 750.06641 C 220.26068 732.45842 230.67266 714.75822 241.11133 697.07422 C 242.73883 694.31722 243.60361 693.05025 244.89844 692.9707 z M 588.8418 718.39648 C 595.36374 718.59686 601.31309 721.1212 606.77734 725.80078 C 611.40667 729.76478 611.24275 732.36288 606.44141 736.32422 C 605.24675 737.30955 604.14819 738.41455 602.99219 739.44922 C 598.93086 743.08522 598.42308 743.11794 593.95508 740.08594 C 587.60041 735.77527 581.79143 735.8947 575.52344 740.4707 C 570.39944 744.2107 568.30225 750.44642 569.90625 756.84375 C 572.30491 766.41442 577.39363 774.30916 585.04297 780.42383 C 593.3203 787.04249 606.24294 782.56203 608.34961 771.58203 C 608.75894 769.44336 608.03658 767.67819 607.75391 765.74219 C 607.00325 760.60885 608.05127 758.82948 612.94727 757.52148 C 616.96861 756.44682 621.07003 755.67139 625.08203 754.77539 C 633.38203 775.76472 620.00818 795.39388 599.38281 800.69922 C 586.72014 803.95655 575.52419 800.29967 566.63086 791.125 C 557.10419 781.29433 552.11255 769.34089 551.42188 755.35156 C 550.61112 738.92223 563.47794 724.02408 579.58594 719.58008 C 582.79593 718.69466 585.87729 718.3054 588.8418 718.39648 z M 314.53125 735.63477 C 315.17875 735.62777 315.83895 735.76755 316.48438 735.93555 C 334.00438 740.49821 351.50697 745.11514 369.04297 749.61914 C 372.6443 750.54314 373.77725 752.33633 372.41992 755.875 C 371.55325 758.13367 370.9895 760.52077 370.4375 762.88477 C 369.9135 765.12211 368.63511 765.76905 366.50977 765.23438 C 362.43777 764.23028 358.30397 763.42111 354.30664 762.17578 C 348.01864 760.21845 347.83244 760.82183 346.28711 766.8125 C 342.04311 783.2725 337.6127 799.68413 333.2207 816.10547 C 331.94203 820.88547 330.90561 821.50269 326.34961 820.55469 C 314.10161 818.00669 314.03507 817.98975 317.17773 805.73242 C 320.90707 791.19109 324.77922 776.6862 328.56055 762.1582 C 330.19922 755.8582 330.15197 755.83757 323.80664 754.24023 C 320.16797 753.3229 316.5282 752.4033 312.9082 751.41797 C 311.62953 751.06997 310.36209 750.55805 309.60742 749.35938 C 308.61142 747.77795 311.01697 737.35227 312.6543 736.21094 C 313.2483 735.7956 313.88375 735.64194 314.53125 735.63477 z M 505.93359 748.47852 C 509.63019 748.64217 511.37065 751.20627 516.02148 758.03711 C 527.98148 775.60377 539.9553 793.16256 551.91797 810.72656 C 552.78997 812.00523 553.63408 813.3028 554.46875 814.60547 C 555.71808 816.55747 555.42137 817.86408 552.9707 818.44141 C 548.46403 819.50141 543.97911 820.64445 538.78711 821.92578 C 537.36311 822.43511 536.79374 820.67932 535.95508 819.47266 C 533.80974 816.38332 531.54336 813.35738 529.66602 810.10938 C 528.25669 807.67195 526.82019 806.68339 523.85352 807.41406 C 517.00686 809.09939 510.05259 810.33429 503.16992 811.87695 C 499.45925 812.70895 498.50872 815.75842 498.35938 818.98242 C 497.76728 831.84109 496.74872 830.74723 484.27539 833.97656 C 479.57672 835.19256 478.6319 833.92484 479.36523 829.07812 C 483.02523 804.87546 486.71266 780.67898 490.25 756.45898 C 490.694 753.42032 491.92679 751.52722 494.82812 750.69922 C 495.25356 750.57788 495.68723 750.48638 496.11523 750.37305 C 500.79223 749.14655 503.71563 748.38034 505.93359 748.47852 z M 417.45117 756.71289 C 422.02316 756.72569 426.59044 756.81872 431.14844 757.07422 C 444.89777 757.84488 451.98653 763.21095 454.0332 774.98438 C 455.89853 785.71772 452.46453 795.59938 441.36719 799.99805 C 440.38586 800.38738 439.53522 801.10869 437.83789 802.16602 C 446.86722 810.31002 451.98752 820.21112 457.85156 829.56445 C 460.90756 834.43912 460.22465 835.40445 454.33398 835.56445 C 439.95665 835.95779 439.96237 835.95446 432.0957 824.0918 C 429.16103 819.6638 426.16342 815.27656 423.24609 810.83789 C 420.51809 806.68856 416.69083 804.429 411.79883 803.76367 C 408.98149 803.381 407.65373 804.35411 407.67773 807.30078 C 407.73903 814.83811 407.74732 822.37611 407.66602 829.91211 C 407.60472 835.54944 406.99683 836.08541 401.41016 834.94141 C 398.76883 834.40008 396.13876 834.10592 393.49609 834.25391 C 389.93342 834.45525 388.9808 832.77842 388.99414 829.48242 C 389.08084 807.09175 388.99509 784.70121 389.07812 762.31055 C 389.0955 757.56388 389.71217 756.99703 394.57617 756.95703 C 402.197 756.89533 409.83118 756.69155 417.45117 756.71289 z "
             transform="matrix(0.75000002,0,0,-0.75000002,-639.47949,346.88418)" />
        </g>
      </g>
      <g
         transform="matrix(0.35277777,0,0,-0.35277777,-158.67395,140.22719)"
         id="g2219"
         style="fill:#000000;fill-opacity:1" />
      <g
         transform="matrix(0.35277777,0,0,-0.35277777,-165.09602,141.71252)"
         id="g2223"
         style="fill:#000000;fill-opacity:1" />
      <g
         transform="matrix(0.35277777,0,0,-0.35277777,-145.27093,132.21532)"
         id="g2227"
         style="fill:#000000;fill-opacity:1" />
      <g
         transform="matrix(0.35277777,0,0,-0.35277777,-152.84563,130.65001)"
         id="g2231"
         style="fill:#000000;fill-opacity:1" />
      <g
         transform="matrix(0.35277777,0,0,-0.35277777,-163.47888,132.03579)"
         id="g2235"
         style="fill:#000000;fill-opacity:1" />
    </g>
  </g>
</svg>
