<?xml version="1.0" encoding="UTF-8" standalone="no"?>
<svg
   xmlns="http://www.w3.org/2000/svg"
   xmlns:xlink="http://www.w3.org/1999/xlink"
   width="150.0079mm"
   height="199.99991mm"
   viewBox="0 0 150.0079 199.99991"
   version="1.1">
  <g transform="translate(-23.180435,-17.439902)">
    <path
      d="m 30.460216,167.74186 c 1.649942,3.34997 3.475144,6.14962 5.525665,8.52522 6.149658,7.22454 14.149847,10.97492 24.101497,16.55022 9.873545,5.70124 17.69992,4.57659 27.199874,10.85145 4.801306,3.1249 7.350831,5.22569 11.426473,9.30098 4.950175,-4.20229 7.999945,-6.32636 13.525505,-9.65306 11.90095,-7.19737 22.00098,-5.09834 33.00095,-13.4239 11.0497,-8.30192 17.97685,-14.67661 21.60199,-27.90013 3.89926,-14.07619 -3.92571,-22.52804 -5.6007,-37.00322 -2.00025,-16.07467 -5.22569,-25.25113 -3.52531,-41.327567 1.59985,-14.324896 4.70006,-22.551674 10.89943,-35.600925 L 136.16567,21.584954 c -12.20082,8.74889 -22.17596,12.149668 -36.527667,12.149668 -1.299634,0 -2.649362,-0.04939 -4.024137,-0.09878 C 81.162324,33.060816 72.236693,30.009288 60.486017,21.584954 L 27.610442,48.434873 c 4.624987,10.703278 7.25096,17.176751 8.999573,28.578529 2.450571,16.275404 -0.499145,25.699858 -1.575117,42.026768 -1.149562,19.02461 -12.826497,31.42545 -4.574682,48.70169 z"
      style="fill:#0081c6;"/>
    <path
      d="m 30.460216,167.74186 c 1.649942,3.34997 3.475144,6.14962 5.525665,8.52522 6.149658,7.22454 14.149847,10.97492 24.101497,16.55022 9.873545,5.70124 17.69992,4.57659 27.199874,10.85145 4.801306,3.1249 7.350831,5.22569 11.426473,9.30098 4.950175,-4.20229 7.999945,-6.32636 13.525505,-9.65306 11.90095,-7.19737 22.00098,-5.09834 33.00095,-13.4239 11.0497,-8.30192 17.97685,-14.67661 21.60199,-27.90013 3.89926,-14.07619 -3.92571,-22.52804 -5.6007,-37.00322 -2.00025,-16.07467 -5.22569,-25.25113 -3.52531,-41.327567 1.59985,-14.324896 4.70006,-22.551674 10.89943,-35.600925 L 136.16567,21.584954 c -12.20082,8.74889 -22.17596,12.149668 -36.527667,12.149668 -1.299634,0 -2.649362,-0.04939 -4.024137,-0.09878 C 81.162324,33.060816 72.236693,30.009288 60.486017,21.584954 L 27.610442,48.434873 c 4.624987,10.703278 7.25096,17.176751 8.999573,28.578529 2.450571,16.275404 -0.499145,25.699858 -1.575117,42.026768 -1.149562,19.02461 -12.826497,31.42545 -4.574682,48.70169 z M 172.11585,50.985456 c -2.67441,5.577417 -5.22358,11.22539 -7.0739,17.127362 -1.67675,5.422195 -2.67617,10.949518 -3.27519,16.550218 -0.65052,5.799314 -0.60043,11.475156 0.0737,17.250834 0.4004,3.42547 0.97614,6.8005 1.52471,10.17588 0.67556,4.09927 1.35149,8.19855 1.85067,12.32394 0.55033,4.57693 1.87466,8.90129 3.30165,13.27749 2.89948,8.84908 4.6743,15.72578 2.09832,25.02536 -3.92395,14.2501 -11.42506,21.27708 -23.00006,30.00093 -5.90126,4.44993 -11.72527,6.32671 -18.82598,8.17668 -5.05037,1.32503 -9.67494,2.64971 -14.17638,5.34882 -2.42429,1.47672 -4.84999,2.99967 -7.14904,4.65172 -1.92546,1.39947 -3.77719,2.89807 -5.57566,4.42454 l -1.925456,1.62454 c -0.824089,0.70097 -2.075392,0.65123 -2.826103,-0.0998 l -1.800225,-1.77483 c -1.673578,-1.67534 -3.398662,-3.32528 -5.248628,-4.82529 -1.674989,-1.34938 -3.450167,-2.57457 -5.250745,-3.74897 -4.0005,-2.62573 -8.049684,-3.87703 -12.60087,-5.12657 -4.950531,-1.37477 -9.525001,-2.84974 -13.999494,-5.40067 -1.326338,-0.77435 -2.676137,-1.4986 -4.000994,-2.22427 -12.200855,-6.70172 -20.976485,-11.77501 -27.226297,-24.65035 -5.627225,-11.65189 -3.301513,-20.95288 0.275308,-32.70356 1.748755,-5.82542 3.400178,-11.57499 3.800652,-17.67452 0.273544,-4.44958 0.774171,-8.87589 1.274551,-13.27573 0.323814,-2.65077 0.625757,-5.30013 0.849418,-7.95126 0.55051,-6.475236 0.450215,-12.775142 -0.525604,-19.250026 -0.724288,-4.62527 -1.723778,-9.176103 -3.199941,-13.628159 -1.524918,-4.575528 -3.450456,-8.999362 -5.348842,-13.423196 l -0.775835,-1.823861 c -0.375378,-0.8255 -0.150206,-1.774472 0.575605,-2.353028 L 59.536692,17.90901 c 0.7493,-0.599723 1.775178,-0.624417 2.549525,-0.07408 l 1.725083,1.224139 c 10.651068,7.627056 18.825635,10.449279 32.026227,10.999612 1.249539,0.05292 2.525889,0.07761 3.775428,0.07761 13.502215,0 22.426435,-3.326695 33.251075,-11.077223 l 1.70003,-1.224139 c 0.77541,-0.550333 1.80023,-0.525639 2.55059,0.07408 l 35.32681,28.800779 c 0.72567,0.60325 0.95074,1.576917 0.55034,2.423584 z M 70.686587,73.736096 61.336917,40.384483 h 5.699125 L 73.137334,65.53754 79.187121,40.384483 H 84.88801 L 75.561623,73.736096 Z M 50.460813,69.262874 c 1.900308,-0.04939 3.675486,-0.751417 4.399668,-1.576917 1.201208,-1.347611 1.47641,-3.975806 0.09991,-5.623278 -1.800014,-2.275417 -7.249196,-2.275417 -10.799411,-3.750028 -3.001363,-1.227667 -5.450558,-3.827639 -5.000096,-9.228667 0.450215,-5.323417 3.623698,-9.249834 10.348948,-9.249834 1.476411,0 6.625203,0.127 9.326246,4.250972 1.42487,2.250723 1.800225,5.35164 1.575153,6.452306 h -5.325604 c 0.07496,-2.702278 -1.775037,-5.17525 -5.674184,-5.252861 -2.776079,-0.04939 -4.800283,1.100667 -5.000343,3.827639 -0.149931,2.296583 0.498969,2.748139 1.750236,3.347861 0.62424,0.8255 5.849338,1.827389 6.924076,2.053167 1.501246,0.324556 4.751493,1.146528 6.501377,3.298473 3.175,4.025194 1.700036,11.952111 -1.749884,14.650862 -2.350805,1.823861 -5.55117,2.275416 -8.625699,2.324805 -1.399681,0.04939 -4.724894,-0.550333 -6.750192,-2.324805 -2.4759,-2.151945 -3.675486,-5.450417 -3.875581,-8.600723 h 5.525523 c 0,0.874889 0.225178,2.2225 1.174645,3.425472 1.249468,1.548695 3.299989,2.049639 5.175215,1.975556 z m 6.174846,59.152016 c 0.850653,0.92393 1.501387,1.99884 0.575345,3.22474 -0.673876,0.87454 -1.324575,0.8509 -1.898544,0.4505 -0.800771,-0.52529 -0.926042,-1.44992 -0.475686,-2.09867 0.39878,-0.55245 1.149562,-1.17793 1.349763,-2.0507 z m 89.730231,19.37491 c -0.67522,-4.22451 -2.4257,-8.07508 -4.94982,-11.29982 l 2.47403,-0.99942 c 2.30081,2.99931 3.97439,6.49993 4.84999,10.3004 z m 4.52473,4.02555 c 0,-15.65099 -12.7762,-28.35064 -28.47587,-28.40108 -15.85101,0.0504 -28.650851,12.75009 -28.650851,28.42613 0,15.67638 12.799841,28.37744 28.650851,28.42613 15.69967,-0.0487 28.47587,-12.74975 28.47587,-28.40109 0,0 0,0 0,-0.025 v 0 z m -28.30195,-30.27574 c 17.526,0.0497 30.42779,13.45035 30.47753,30.17767 -0.0497,16.72378 -12.95153,30.39921 -30.47753,30.42602 -17.62513,-0.0268 -30.675443,-13.62569 -30.750232,-30.35265 0.07479,-16.7259 13.125102,-30.2013 30.750232,-30.25104 z M 111.88892,76.76293 c 0.65052,0.699206 1.04951,1.474964 1.19979,1.92405 0.34996,0.976136 0.0998,1.649942 -0.32561,2.050345 -0.42369,0.400402 -1.14935,0.575733 -2.12407,0.17533 -0.42545,-0.17533 -1.20086,-0.625475 -1.84997,-1.325033 -0.65052,-0.675217 -1.05093,-1.449564 -1.22449,-1.900061 -0.32526,-0.977548 -0.10019,-1.676048 0.34854,-2.049992 0.42545,-0.402167 1.12607,-0.599722 2.10044,-0.201084 0.44873,0.201084 1.20121,0.649112 1.87537,1.326445 z m 42.05182,-30.875113 2.25072,-2.053167 -2.10115,-2.2225 -2.25001,2.070806 v 0 z m -3.05012,2.772833 -7.40057,-13.825362 -1.90042,1.725084 5.92596,10.124723 -9.92681,-6.473473 -1.8736,1.725084 13.55055,8.198556 v 0 z m -6.10129,5.577417 -2.09868,-2.201333 -2.25072,2.049639 2.10044,2.197806 v 0 z m -6.87352,6.921501 c 1.29928,-1.17475 1.97414,-3.824111 0.77399,-5.722056 l -1.85032,1.700389 c 0.30092,0.497417 0.22542,1.298222 -0.19826,1.922639 -0.4505,0.60325 -1.22626,1.001889 -2.30082,0.726722 -0.67557,-0.201083 -1.10102,-0.649111 -1.50001,-1.125361 l 4.84999,-4.448528 c -0.90099,-1.026583 -1.95016,-2.12725 -3.77543,-2.751667 -1.22484,-0.398639 -2.90124,-0.398639 -4.32611,0.924278 -0.82444,0.747889 -2.67441,2.723445 -0.0483,6.399389 0.49918,0.726723 1.12465,1.351139 1.59984,1.827389 0.52564,0.472723 0.94933,0.776111 1.09961,0.874889 0.8756,0.546806 2.0253,0.899584 3.1997,0.772584 0.8509,-0.09878 1.77518,-0.448028 2.47615,-1.100667 z m -7.27569,6.00075 -7.2009,-2.973917 -0.82409,-5.17525 -1.92688,1.749778 0.97579,5.150556 -0.025,0.02469 -5.77568,-6.099528 -1.67358,1.552222 10.59921,11.123084 1.67676,-1.524 -2.47615,-2.575278 -0.20003,-1.601611 4.87504,2.151945 v 0 z m -9.30134,9.151056 c 1.02623,-0.998361 1.19979,-1.499305 1.19979,-2.472972 -0.0236,-0.47625 -0.24906,-2.324806 -1.34972,-3.425472 l -1.59844,1.449916 c 1.07421,1.651 0.62371,2.2225 0.17357,2.575278 -0.52423,0.472723 -1.14971,0.6985 -2.64972,-0.377472 -1.15111,-0.797278 -2.07539,-2.148417 -2.25037,-2.448278 -0.57397,-0.977194 -0.62406,-1.799167 0,-2.300111 0.55034,-0.426861 1.02588,-0.850195 2.52554,0.250472 l 1.6002,-1.474611 c -0.62583,-0.677334 -2.4758,-1.799167 -3.75038,-1.725084 -0.67557,0.02117 -1.55011,0.47625 -2.15054,1.100667 -0.99941,1.072445 -1.85032,1.922639 -0.49882,4.822473 0.64876,1.400528 2.04858,2.751667 2.82434,3.425472 1.27493,1.100667 3.99944,2.551289 5.92455,0.599722 z m -6.8252,6.251223 c 0.85055,-0.774347 1.37619,-1.875367 1.32645,-3.099859 -0.0504,-1.351139 -0.95144,-2.925586 -2.22603,-4.276725 -1.27459,-1.347611 -2.82469,-2.324806 -4.19911,-2.472972 -1.22626,-0.151695 -2.40101,0.299861 -3.25156,1.072444 -0.84949,0.800806 -1.37477,1.901473 -1.32468,3.129139 0.0497,1.348317 0.94933,2.92347 2.22533,4.273198 1.27458,1.324681 2.82469,2.3241 4.20087,2.474031 1.22485,0.125236 2.37385,-0.300214 3.24873,-1.099256 z m -4.70005,4.299303 c 0.27516,-0.275167 0.47519,-0.623711 0.64875,-0.974372 l -1.37301,-1.449564 -0.70061,0.600428 c -0.22508,0.223661 -0.57538,-0.04974 -0.95074,-0.450498 l -4.44994,-4.676422 0.97614,-0.874184 -1.35114,-1.424869 -0.97437,0.874536 -2.125844,-2.22497 -1.75013,1.600553 2.125839,2.226028 -0.849489,0.799042 1.349724,1.424517 0.84949,-0.800453 5.12516,5.400322 c 0.94932,0.775759 1.80022,0.875948 2.52589,0.600781 0.34889,-0.150283 0.64911,-0.373944 0.92428,-0.650875 z m -4.72476,3.800475 c 0.62548,-1.499658 -0.35066,-3.099505 -1.12465,-3.923947 -1.00119,-1.050925 -2.35091,-1.249539 -3.12491,-0.900995 l -3.226505,1.351492 c -0.7493,0.348897 -1.299633,-0.500592 -1.199797,-1.000831 0.175331,-0.799394 0.724253,-1.149702 1.249539,-1.35008 0.776111,-0.275167 1.126419,-0.02469 1.627011,0.500592 l 1.623132,-1.476376 c -0.57397,-0.624064 -1.424518,-1.424869 -3.049765,-1.32468 -1.024467,0.05009 -1.925109,0.550686 -2.599267,1.224492 -0.67557,0.650875 -1.075972,1.500011 -1.10102,2.200627 -0.02505,0.750712 0.225073,1.825273 1.275998,2.899834 0.724252,0.725664 1.723672,1.401233 3.300236,0.750711 l 2.824338,-1.149703 c 0.82585,-0.42545 2.25108,1.124656 0.89958,2.124075 -0.87453,0.525639 -1.44991,0.900995 -2.574215,0.150284 l -1.675342,1.524705 c 0.525639,0.525639 1.825277,1.601612 3.774017,1.151114 0.50059,-0.124883 1.15111,-0.500239 1.72685,-0.976136 0.59866,-0.523522 1.09961,-1.14935 1.37477,-1.775178 z m -8.075081,7.899754 c 0.849136,-0.773995 1.374775,-1.873251 1.32468,-3.099506 -0.04974,-1.349728 -0.949325,-2.924881 -2.225322,-4.274609 -1.299986,-1.349728 -2.825045,-2.325511 -4.19982,-2.475794 -1.226256,-0.14852 -2.400653,0.300214 -3.2512,1.075972 -0.874536,0.799394 -1.399822,1.900414 -1.350081,3.125258 0.05009,1.349728 0.976136,2.924528 2.250723,4.273903 1.274939,1.325034 2.824691,2.325865 4.176183,2.476148 1.249539,0.125236 2.399242,-0.300567 3.274837,-1.101372 z m -4.349751,3.326691 -0.376766,-0.42509 c -0.348898,0.0501 -0.648759,0.0501 -1.224492,-0.57574 -0.550686,-0.54892 -1.949098,-1.975553 -2.424289,-2.375603 -1.051278,-0.899231 -1.925461,-0.624064 -2.500842,-0.599017 0.225072,-1.00083 0.300214,-1.725436 -0.400403,-2.874433 -0.674158,-1.17475 -1.6002,-1.775178 -2.198864,-2.150534 -1.401233,-0.951089 -2.826456,-0.60078 -3.800475,0.200025 l -5.125509,4.699706 10.474326,10.999616 1.900061,-1.72368 -4.124325,-4.35081 2.224264,-2.05034 c 0.650522,-0.59902 1.451328,-0.64911 2.200628,0.0748 0.725664,0.8262 1.549753,1.70039 2.100439,2.20098 0.375003,0.34854 0.775405,0.62547 1.224492,0.79904 v 0 z m -12.576176,11.50056 -5.275086,-5.55096 c -1.975556,-2.07539 -3.775781,-1.94874 -5.300486,-0.54857 -0.650875,0.59902 -0.800806,1.69827 -0.300567,2.87443 l -0.0247,0.025 -1.199797,-1.2513 -1.700389,1.57656 7.875059,8.27546 1.725083,-1.57691 -4.900083,-5.12339 c -0.623711,-0.67593 -1.099256,-1.57516 -0.07479,-2.52625 1.176161,-1.0742 2.075039,-0.27481 2.774245,0.4759 l 4.676775,4.89973 v 0 z m -9.951861,9.75007 c 1.27635,-1.17475 1.976967,-3.84916 0.776111,-5.74957 l -1.87572,1.70004 c 0.325614,0.52599 0.225425,1.32468 -0.200025,1.9505 -0.423686,0.57397 -1.199444,0.97402 -2.273653,0.69921 -0.675922,-0.17357 -1.126419,-0.62548 -1.500364,-1.12466 l 4.848578,-4.42595 c -0.89923,-1.02446 -1.973439,-2.15088 -3.773664,-2.74955 -1.249891,-0.4004 -2.901597,-0.4004 -4.324703,0.89923 -0.8509,0.77541 -2.676172,2.72592 -0.0769,6.40151 0.525639,0.72566 1.126419,1.37442 1.625247,1.84997 0.525286,0.44908 0.950736,0.7493 1.10102,0.87453 0.874536,0.55034 2.025297,0.8756 3.175,0.77541 0.875947,-0.10125 1.775178,-0.45156 2.499078,-1.10067 z m -4.99992,3.90031 -6.375048,-6.67491 1.049514,-0.95108 -1.349728,-1.42452 -1.049655,0.95074 -0.825852,-0.87595 c -0.373698,-0.4004 -0.398675,-0.70062 -0.173355,-0.92428 l 0.624275,-0.55069 -1.524952,-1.59984 -1.074738,0.99942 c -1.150796,1.05092 -0.875736,2.35055 0.300426,3.57716 l 0.924524,0.97438 -0.949466,0.84913 1.349763,1.42452 0.949078,-0.84914 6.375083,6.67562 v 0 z m -3.049764,2.77495 -0.273756,-0.27587 c -0.475544,-0.0233 -1.00083,-0.22331 -1.351139,-0.59866 l -4.301349,-4.52649 c -1.249468,-1.32433 -2.473995,-1.44957 -3.52365,-1.12395 -0.525322,0.14957 -1.276209,0.59901 -2.000356,1.27423 -1.001007,0.90135 -2.774562,2.97462 -0.275061,5.65079 l 1.775037,-1.62489 c -0.523911,-0.62548 -1.124621,-1.50001 -0.02494,-2.49908 0.850794,-0.77576 1.449705,-0.90135 1.95005,-0.37535 0.400332,0.37535 0.600569,0.92427 0.400332,1.37442 -0.27506,0.57573 -0.850794,1.44991 -1.52467,2.09903 -1.374705,1.84996 -0.700864,3.35174 0.373874,4.55154 1.451222,1.67498 3.10127,1.95015 4.576339,0.60042 1.099432,-1.02587 1.224316,-2.02671 1.224316,-3.32493 0.250119,0.30022 0.649111,0.54892 0.976136,0.62371 v 0 z m -7.599469,6.97513 -10.501066,-11.02466 -1.900026,1.75013 3.950547,4.12432 -3.675522,3.35033 -3.925746,-4.12467 -1.899885,1.72543 10.475702,11.02466 1.900025,-1.75013 -4.7498,-4.97522 3.675486,-3.34822 4.749836,4.99816 v 0 z M 164.99221,48.459567 33.084566,167.14107 c -2.874434,-5.65079 -2.599267,-8.84907 -2.674232,-15.1257 0.07497,-6.82484 2.273899,-9.27594 3.750486,-15.9011 1.825061,-8.14988 2.123546,-8.94927 3.149918,-17.20074 L 137.93909,26.185177 Z m -33.5781,5.602112 c 1.20121,-0.977195 2.37596,-0.123473 2.97498,0.500944 l -2.89984,2.649361 c -0.77399,-0.751416 -1.29998,-2.151944 -0.0751,-3.150305 z m 3.6255,118.855431 c 3.50026,-2.17559 6.4262,-5.22535 8.47548,-8.85085 l 2.02495,1.70039 c -2.35056,3.87562 -5.6254,7.10071 -9.54934,9.37613 z M 80.887157,95.587506 c 0.8509,-0.774347 1.5748,-0.599017 2.325511,0.175331 1.149703,0.975783 0.899584,2.275769 0.450497,2.676172 l -2.60103,2.374191 -2.74955,-2.874783 z m 13.475406,-2.824339 c 0.67557,0.700617 1.075973,1.474964 1.226256,1.925109 0.348897,0.976136 0.100189,1.650294 -0.325261,2.050344 -0.42545,0.398992 -1.151467,0.57397 -2.125486,0.17392 -0.42545,-0.17392 -1.199798,-0.624417 -1.85032,-1.325034 -0.650522,-0.675569 -1.049514,-1.449564 -1.224492,-1.900061 -0.325614,-0.974372 -0.100189,-1.673578 0.348898,-2.048934 0.42545,-0.400402 1.125714,-0.60078 2.100086,-0.200377 0.45085,0.200377 1.201208,0.649464 1.850319,1.325033 z M 63.637734,116.01369 c 1.174397,-0.97437 2.349147,-0.10019 2.949575,0.52564 l -2.899834,2.65077 c -0.750711,-0.77575 -1.275997,-2.17558 -0.04974,-3.17641 z m -13.402241,47.0267 c 2.075604,-0.10019 3.725546,-0.59902 4.22589,-2.74955 h 2.100686 v 15.12534 h -2.801267 v -10.49866 h -3.525309 z m 29.676939,0 c 2.026003,-0.10019 3.700639,-0.59902 4.224514,-2.74955 h 2.100792 v 15.12534 h -2.799645 v -10.49866 h -3.525661 z m 48.952508,-17.75002 4.17583,-8.92422 6.62517,0.2734 c 3.04976,3.57717 5.05001,8.1019 5.4737,13.10041 l -2.52413,3.95076 -9.72467,0.72566 z M 63.761206,168.5409 c 1.449917,0 1.449917,-1.47461 1.399822,-2.74955 0.07479,-1.82528 0.09984,-3.42512 -1.399822,-3.27484 -1.525059,0.025 -1.349728,1.37478 -1.399822,3.27484 0.05009,1.12501 -0.100189,2.74955 1.399822,2.74955 z m 0,-8.25006 c 3.450167,0 4.351161,2.20062 4.401256,5.67407 v 3.60045 c -0.0755,4.87504 -1.474964,6.1528 -4.576234,6.2029 -2.174169,-0.0501 -3.800475,-1.05093 -3.675592,-3.42689 h 2.625725 c 0.0254,0.50059 0.0755,1.22485 1.224845,1.20121 1.624894,-0.0265 1.474611,-1.92652 1.575153,-2.75061 v -1.04986 c -0.524228,0.47589 -0.974373,0.99941 -2.274359,1.04986 -2.475442,-0.0504 -3.525308,-1.67534 -3.500261,-4.82706 -0.02505,-3.72357 0.924278,-5.67407 4.199467,-5.67407 z M 122.3897,127.19005 c -3.92571,0 -7.626,0.95109 -10.90083,2.57457 l -2.15054,-1.57374 c 3.87527,-2.1269 8.32521,-3.3267 13.07642,-3.35139 1.67499,0 3.30023,0.17498 4.87539,0.45014 l 0.44838,2.49943 c -1.70004,-0.40005 -3.47345,-0.59901 -5.27368,-0.59901 -0.0265,0 -0.0265,0 -0.0501,0 z m -47.727307,46.35253 c 1.525058,-0.0501 1.349728,-1.40123 1.399822,-3.27448 -0.05009,-1.15147 0.09984,-2.77672 -1.399822,-2.75132 -1.449917,-0.0254 -1.449917,1.44957 -1.42487,2.75132 -0.05009,1.79987 -0.07514,3.39795 1.42487,3.27448 z m 0.698853,-8.27652 c 2.500841,0.0268 3.525308,1.6503 3.502025,4.64996 0.02328,3.85199 -0.900642,5.80214 -4.200878,5.85224 -3.425473,-0.0501 -4.349398,-2.22568 -4.399845,-5.85224 v -3.59903 c 0.07549,-4.72476 1.498247,-6.02615 4.575175,-6.02615 2.198864,0 3.82517,1.02623 3.673475,3.42511 h -2.624314 c 0.02505,-0.52528 -0.02505,-1.27458 -1.224491,-1.19944 -1.599848,0.12488 -1.449917,1.90041 -1.42487,2.74955 v 1.05093 c 0.398992,-0.5006 0.849136,-1.02412 2.123723,-1.05093 z m 30.403094,-4.32435 -5.875865,-4.42666 c -0.300567,-1.47461 -0.450497,-3.02436 -0.450497,-4.57447 0,-0.0497 0,-0.0497 0,-0.0751 v -0.025 c 0,-0.025 0,-0.0734 0,-0.0998 0,-3.40043 0.748942,-6.62517 2.050342,-9.525 l 6.87529,-3.17641 8.05039,7.87647 -0.30057,9.67634 z m 37.3253,0.77399 c -2.02388,4.37621 -5.37457,8.02641 -9.49995,10.37591 l -7.10071,-0.42581 -0.37359,-9.34931 6.47453,-6.8005 9.72573,-0.72461 z m -18.07527,0.80081 0.35031,9.45127 -4.70006,2.7746 -0.0998,0.22366 c -5.576,-0.44909 -10.57592,-2.87443 -14.32666,-6.59871 h 0.0251 v -6.47524 l 10.42599,-4.37585 z m -7.87506,-16.45038 -8.05004,-7.82638 2.54918,-6.92361 c 3.2004,-1.7018 6.85059,-2.67582 10.75125,-2.67582 h 0.025 0.0236 0.0265 c 2.02354,0 4.00086,0.27481 5.89951,0.79869 l 3.72533,6.35141 -4.17407,8.89952 z m -12.22587,23.00041 c 3.90067,4.02554 9.14965,6.72535 15.05056,7.30109 l -0.97437,2.24895 c -6.45019,-0.82444 -12.20082,-3.8742 -16.40205,-8.34848 z M 97.988061,151.8404 c 0,0.025 0,0.0751 0,0.10018 0,1.55011 0.14993,3.07623 0.42545,4.57447 l -2.601031,0.92605 c -0.373944,-1.82492 -0.573969,-3.6756 -0.573969,-5.6007 0,-4.27426 0.999419,-8.30016 2.774244,-11.90061 l 1.87572,2.32586 c -1.224845,2.89984 -1.900414,6.12458 -1.900414,9.47491 0,0.0501 0,0.0748 0,0.0998 v 0"
      style="fill:#ffffff;"/>
  </g>
</svg>
